<?xml version="1.0" standalone="no"?>
<!DOCTYPE svg PUBLIC "-//W3C//DTD SVG 1.1//EN" "http://www.w3.org/Graphics/SVG/1.1/DTD/svg11.dtd" >
<svg xmlns="http://www.w3.org/2000/svg">
<metadata>
This is a custom SVG webfont generated by Font Squirrel.
Copyright   : 1999 Ace Fonts  wwwacefontscom
</metadata>
<defs>
<font id="webfontntUfDK3b" horiz-adv-x="234" >
<font-face units-per-em="2048" ascent="1638" descent="-410" />
<missing-glyph horiz-adv-x="390" />
<glyph unicode=" "  horiz-adv-x="390" />
<glyph unicode="&#x09;" horiz-adv-x="390" />
<glyph unicode="&#xa0;" horiz-adv-x="390" />
<glyph unicode="!" horiz-adv-x="180" d="M4 1448l8 -116l-4 -24v-160q-8 -52 -4 -88q-4 -32 4 -60v-12l-8 -152l4 -28l4 -100l-4 -24l4 -12q0 -40 12 -92l4 -124l-8 -88q24 -64 16 -116l24 -12l4 20q0 32 -4 56q-16 72 -4 132l-4 80l-4 24v32l-4 12v28l-8 40v24q0 40 -4 64l4 20q-4 28 -4 56q-4 44 0 96 q8 56 0 104v108q8 52 4 88v208q-4 20 -24 24zM48 -4q16 16 24 36q-16 12 -36 16q-32 -36 12 -52z" />
<glyph unicode="&#x22;" horiz-adv-x="290" d="M162 1536q0 -20 -4 -32q-8 -60 4 -108q-8 -44 4 -80l24 -12l8 16q-24 116 0 208q-12 12 -24 16zM18 1300l20 8q0 28 -4 48q-16 92 4 168q-8 12 -24 16q-36 -128 4 -240z" />
<glyph unicode="#" horiz-adv-x="1360" d="M940 1451l-4 -24l-4 -20l-8 -20l-4 -32l-8 -40l-12 -36q0 -28 -8 -52l-4 -12q0 -24 -8 -52l-4 -28l-8 -28q0 -52 -20 -88l-92 -4q-32 0 -52 -4l-96 -4q-60 -16 -112 -4l-12 4q-44 -4 -72 0l4 20l4 20l16 72l4 16l36 152q24 96 24 156l-20 -12l-4 -20l-28 -136v-20l-8 -16 q-4 -24 -10 -46t-14 -38v-12l-8 -24q0 -20 -4 -32q-4 -48 -20 -84l-52 4q-76 4 -124 -4l-56 8h-12q-72 -20 -128 4l-12 -8q4 -20 12 -32q52 -4 91 -5q17 1 40 2l25 -1l20 -4l44 -4q12 0 16 4l12 -4l28 4h88l4 -16l-8 -40v-16l-8 -24v-24l-4 -8l-4 -32l-4 -28l-8 -20l-4 -36 q-8 -24 -8 -48l-4 -16v-16l-12 -52l-4 -24q-4 -72 -20 -120l-8 -4q-72 16 -128 -8q-68 16 -120 -4q4 -20 14 -22t30 2q44 4 72 -4q40 8 72 0q36 4 64 0q-4 -40 -12 -68v-16l-4 -24l-12 -64v-12q-4 -24 -4 -60l-12 -44q-4 -56 -20 -92q0 -28 24 -32l12 20v40l8 20q4 44 12 72 v40l4 16l4 36l4 16v36q12 28 8 52q12 36 12 64l44 12l32 4l44 4h36q28 0 48 -4h28l8 4q40 -4 72 4q72 8 120 0q-4 -40 -16 -96l-16 -124v-12l-12 -48v-12q-8 -24 -8 -48q-24 -60 12 -84l16 16q4 12 0 20l-4 20q4 16 8 44l4 20l4 36l4 28q8 24 8 52l8 72l4 32l12 44l4 36l8 8 h24q44 8 72 8h16q24 4 68 8l28 4h24l32 8h124q0 20 -8 32h-92q-32 -8 -56 -8q-12 -4 -36 -8q-36 0 -72 -8l-92 -4l-24 -4q-4 12 0 24q4 52 16 88l4 16l4 36l4 20l4 24l4 24l4 24l12 44q0 28 4 48l4 12l4 24l4 28l4 28q4 52 20 88l52 4l124 4q12 4 20 0l44 8h28l16 4 q64 4 100 12q0 12 -28 24h-16l-44 -12l-16 4l-44 -8h-28q-8 -4 -18 -4t-14 4l-12 -4h-64q-56 -12 -100 -4l8 24v24l8 24v12q8 36 8 64l8 16v16q4 32 12 52v16l12 44l4 16l4 36l8 32q16 32 20 60l-8 12h-12zM848 983l-4 -24l-4 -24q-12 -36 -12 -64l-4 -20l-4 -40 q-8 -28 -12 -72l-24 -112q-4 -52 -16 -88q-4 -44 -20 -76l-20 -4l-28 4h-36l-20 -4h-24l-8 -4l-44 -4h-204q-24 -8 -40 0l4 48l4 20l4 24v24q12 36 12 64l4 8v16l16 100l4 16q8 24 8 40l4 24q4 28 12 52v24l4 8l8 44l28 4h28q60 0 100 8l16 4h48l24 4h56l16 4l16 4l88 4z " />
<glyph unicode="$" horiz-adv-x="771" d="M288 1336q-235 -43 -288 -182q5 -336 293 -303l9 -14l-4 -29l-5 -29l5 -76l-10 -77q5 -48 0 -82v-163l-5 -19q5 -58 -5 -101q10 -53 0 -91q-148 -5 -225 110l-24 -14l5 -29q96 -91 201 -96q29 -10 48 -24q-5 -14 0 -24v-19q0 -39 5 -63l34 -14q-10 72 -5 120 q29 -14 57 -10q274 154 308 432q-5 380 -341 351l-10 9l5 63l-5 29v115q0 14 -5 19v163q120 10 197 -72l24 19q-77 101 -221 101q-9 39 -4 67q-5 15 0 24v6q-38 139 -34 -97zM288 1288l5 -24v-158l5 -19v-192q-212 -48 -250 158q-48 192 216 240zM638 659l5 -144l-9 -28 l-15 -77q-110 -197 -269 -274l-33 19l5 216q4 24 4 39v120l-4 29q9 38 4 67l5 53v134l5 34l14 4l68 10q172 -43 220 -202z" />
<glyph unicode="%" horiz-adv-x="830" d="M618 1419l-8 -40l-12 -32q-24 -52 -32 -92l-16 -48l-12 -28l-100 -256v-12l-12 -24l-20 -64l-12 -28q0 -16 -8 -28q-20 -44 -24 -80q-8 -12 -16 -40l-16 -40l-12 -56l-4 -8l-56 -172q-12 -20 -16 -36q-12 -20 -20 -48l-40 -116l-4 -16l-16 -60q-4 -44 -12 -72l4 -28 q16 4 28 16l4 12q-4 24 4 40v12l12 40v12q16 36 16 64l12 28l52 132l4 16q12 20 16 40l12 32l12 28l20 72l4 28q12 28 16 52l20 56l4 8l40 124l12 24l24 80l12 24l8 20l12 28q12 24 16 44l24 68l4 16l8 16l84 240q32 72 4 92q-12 -16 -20 -40zM134 1431l-48 -28 q-84 -140 -84 -288q68 -216 228 -140q196 24 204 196q16 136 -52 240q-20 8 -32 16q-64 0 -112 24h-44zM222 1415q40 0 68 -8q32 0 60 -8q112 -152 36 -316q-24 -28 -52 -44l-8 -4q-44 -24 -76 -28q-68 -28 -116 -28q-76 60 -104 140q0 168 96 276q16 -4 37 9q19 7 47 11h12 zM394 391q-44 -84 -40 -168q20 -112 108 -156q136 -40 208 68q72 164 -32 356q-56 52 -120 50q-96 -50 -124 -150zM566 511l20 -12l40 -40q116 -292 -76 -376q-268 44 -100 364l8 8q32 36 56 56q32 7 52 0z" />
<glyph unicode="&#x26;" horiz-adv-x="990" d="M204 1383q-4 -60 4 -100l76 -172q16 -40 36 -68l8 -8l4 -16l12 -20q20 -24 28 -40q24 -20 36 -48l-44 -56l-8 -8l-32 -40l-12 -20q-20 -36 -48 -80q-12 -20 -16 -32l-16 -28q-24 -32 -32 -56q-24 -28 -36 -56q-4 -12 -8 -16l-20 -32q-12 -28 -24 -44l-44 -80l-16 -28 l-8 -24l-28 -48l-8 -28q-12 -52 -8 -96q16 -68 56 -112q32 -16 56 -16l8 -4q44 0 68 -4l12 -4l8 4l12 -4l96 -4q48 8 80 8l8 8l24 12q40 16 68 36l32 28q8 12 16 16l16 16l32 44l152 148l28 -44l8 -20q12 -28 32 -60l16 -20l16 -36q28 -40 40 -72l24 -20q12 12 12 28l-20 28 l-36 60l-12 32q-12 20 -24 32l-60 116q20 24 36 36l28 12q-28 60 -80 -20l-12 20l-8 8q-16 32 -32 48l-8 20l-20 32q-12 28 -24 44l-52 100q-24 32 -36 60l-8 8l-16 24q0 8 -8 24l-40 60l-44 100q28 36 40 72q212 176 168 352q-84 156 -300 156q-100 -24 -148 -108z M628 1303q0 -28 8 -52l-4 -12l-36 -56q-12 -48 -32 -76l-20 -16l-4 -8l-64 -64l-8 -12q-24 -40 -44 -64q-20 44 -48 68l-16 28q-120 164 -128 328q48 72 124 92q192 -4 272 -156zM428 871q16 -40 44 -84q24 -36 36 -64l12 -16l12 -20l4 -16l8 -16l8 -8l52 -88q0 -8 8 -24 q24 -32 36 -60l80 -132q-8 -12 -16 -16l-12 -16l-16 -16q-28 -20 -48 -44l-32 -32q-16 -16 -24 -28q-16 -12 -24 -28l-20 -20q-24 -32 -48 -52l-20 -12q-52 -32 -84 -44q-28 0 -48 -4q-52 -8 -96 4l-28 -8l-8 8q-60 0 -100 12q-48 32 -68 80l4 8q-12 60 4 108l12 16l16 44 l8 12q8 24 20 36l24 52q28 40 40 64l28 52q4 12 8 16l20 32l20 28l12 24q16 40 36 64l4 12l12 24l12 20l8 8l96 132z" />
<glyph unicode="'" horiz-adv-x="123" d="M162 1536q0 -20 -4 -32q-8 -60 4 -108q-8 -44 4 -80l24 -12l8 16q-24 116 0 208q-12 12 -24 16z" />
<glyph unicode="(" horiz-adv-x="360" d="M206 1457l-8 -12l-4 -12q-12 -32 -28 -48q-12 -36 -28 -60q-280 -760 -16 -1432q20 -12 40 0v16l-20 36q-16 40 -32 64l-12 36q0 12 -4 16l-4 20l-36 132v24q-12 32 -12 60l-8 44v12q-4 48 -12 80v112l4 20l4 156l4 12v68l4 32l4 28l12 64l8 20l4 36q20 68 24 96l4 16 q12 32 16 56l8 16q0 12 4 16q4 12 8 16v12l32 92l8 16q32 68 72 108q-8 24 -24 36z" />
<glyph unicode=")" horiz-adv-x="350" d="M39 -102l8 12l4 12q12 32 28 48q12 36 28 60q280 760 16 1432q-20 12 -40 0v-16l20 -36q16 -40 32 -64l12 -36q0 -12 4 -16l4 -20l36 -132v-24q12 -32 12 -60l8 -44v-12q4 -48 12 -80v-112l-4 -20l-4 -156l-4 -12v-68l-4 -32l-4 -28l-12 -64l-8 -20l-4 -36 q-20 -68 -24 -96l-4 -16q-12 -32 -16 -56l-8 -16q0 -12 -4 -16q-4 -12 -8 -16v-12l-32 -92l-8 -16q-32 -68 -72 -108q8 -24 24 -36z" />
<glyph unicode="*" horiz-adv-x="565" d="M208 1467l-4 -12v-48q12 -76 0 -132l-28 28l-24 20l-48 44q-44 -20 100 -132q-88 -20 -164 4l-40 -20v-24h48l8 4h112q-20 -48 -52 -76q24 -64 88 72l4 -28q-4 -20 0 -32l-4 -28q8 -40 -4 -76q8 -24 20 -36q20 12 18 34t2 42q-12 72 4 132q36 -24 52 -48l8 -8 q24 -32 44 -48h20l12 20l-4 8q-48 28 -76 72l16 8l12 -4l16 4l28 -4l20 4q48 8 80 4l8 20l-20 16q-24 -4 -40 -4q-92 -24 -164 -4l32 36q60 40 92 88q-4 20 -24 20q-20 -16 -28 -32l-28 -28q-36 -28 -56 -56l-4 8l-4 76q-8 60 4 104l-20 20z" />
<glyph unicode="+" horiz-adv-x="840" d="M268 971l4 -20l4 -20l4 -20l4 -248q0 -12 -4 -16l4 -12l-4 -28v-88l-8 -8q-36 8 -64 4h-72q-72 -8 -124 4l-12 -28l20 -12l16 -4l36 8l44 -4l28 4q84 4 140 -8l4 -76l4 -24l4 -68l4 -24q-4 -8 0 -16v-36l4 -52l4 -144q8 -28 28 -40q12 8 16 20l-4 20q-8 24 -8 72 q0 32 -4 52l4 12l-4 12l4 20q-8 36 -8 64l-4 8q4 32 0 48v24l-4 12l-8 116q24 4 46 4t58 8h16q48 -8 88 0l80 -4l12 -4l116 -4q8 16 8 28q-8 12 -16 16l-12 -4h-52l-12 -4l-12 4l-84 4q-24 4 -46 0t-38 -4q-24 4 -28 0h-36q-56 -4 -92 4v216l4 16l-4 16v16q-4 44 0 48 q-4 24 0 44q-8 52 -8 88q-8 16 -20 24z" />
<glyph unicode="," horiz-adv-x="177" d="M69 67q-5 -19 -4 -32q-8 -60 -32 -103q-4 -45 -25 -76l-26 -6l-4 18q53 106 54 201q15 8 27 9z" />
<glyph unicode="-" horiz-adv-x="648" d="M12 503l8 4q20 -4 24 0l12 -4h184l20 -4l24 -4l20 4l24 -4l16 4q24 -4 44 4h108l8 4q44 -8 70 2t14 30q-12 0 -40 4l-32 -4h-32l-16 -4q-60 4 -100 -4l-32 -4l-20 4l-36 -4q-52 12 -88 8h-56l-8 -4l-12 4q-60 0 -100 8q-24 -20 -4 -40z" />
<glyph unicode="." horiz-adv-x="173" d="M0 31q40 -76 56 8q-20 12 -36 12z" />
<glyph unicode="/" horiz-adv-x="560" d="M428 1451v-28l-4 -8l-16 -80l-4 -16l-4 -20l-8 -20l-4 -28l-8 -24l-4 -16l-8 -20q-8 -36 -32 -92l-4 -16q-12 -40 -16 -68l-32 -84v-12l-8 -48q-8 -12 -8 -24l-12 -40v-12l-28 -88q0 -12 -4 -16q-4 -28 -8 -32l-12 -36l-12 -36l-8 -16l-32 -100l-4 -20l-4 -20l-8 -20 q-20 -56 -24 -96l-12 -16l-36 -100q-12 -56 -32 -88q-12 -24 -16 -44l-16 -40q0 -20 8 -32q20 4 32 24v24l12 36l28 56l12 56l8 16q4 32 20 52l16 44q8 44 20 68q8 36 20 64l4 28q12 28 16 52l4 8l24 68v12l32 80q0 8 4 28q16 44 16 60l12 32v16l4 8l40 148l4 16l8 24 q16 40 20 68l44 136q0 8 4 28q12 28 14 46t10 42q8 72 36 120q-4 24 -28 20z" />
<glyph unicode="0" horiz-adv-x="960" d="M380 1447l-24 -4q-32 -12 -48 -24q-24 -8 -36 -20l-8 -4l-20 -16l-24 -16l-8 -4q-8 -24 -28 -44q-28 -52 -52 -84l-56 -160q-4 -12 -8 -16l-4 -12q-12 -56 -28 -92v-16q-4 -28 -8 -40t-4 -36l-4 -24l-8 -24q4 -44 -8 -76v-12q8 -48 4 -80q0 -40 -4 -68q0 -12 4 -16 l-8 -32q12 -48 8 -84l12 -32l4 -28l16 -48q8 -40 24 -64l4 -20l8 -8q20 -56 48 -88l16 -12q20 -32 40 -48q28 -16 44 -32l72 -44l8 4q84 -36 164 -24q48 4 84 20l20 20q20 12 32 24l32 36l12 8l12 16l20 20l60 76q8 24 20 40l12 28q8 36 20 64l4 12l12 64l4 24l8 24l8 44 q4 24 12 40l4 28l4 24l4 20v52l4 12q4 24 4 40v68l4 12v96q-12 280 -212 432q-96 128 -216 120q-32 12 -56 -16zM496 1417q16 -6 32 -6l28 -20l48 -48l24 -20l24 -24q40 -28 64 -60l12 -20l16 -12l32 -48l36 -100q8 -32 4 -56l4 -16l12 -44q-8 -52 4 -92l-4 -16 q-8 -64 -4 -100l-4 -24q-4 -36 -4 -64l-4 -16l-4 -20l-4 -24l-4 -20v-20l-8 -20q-4 -12 -8 -32q0 -24 -8 -40v-16l-4 -8l-4 -36q-12 -16 -12 -36q-12 -32 -16 -56l-8 -12l-16 -40q-32 -44 -40 -60l-16 -8q-16 -28 -32 -44q-12 -4 -16 -12l-60 -60q-20 -12 -32 -24 q-116 -32 -212 16q-208 104 -248 308l-8 24l-4 16l-4 20l-16 72l4 12q-8 48 0 84l-4 8q4 16 0 36l4 28q-4 16 0 36v52l4 12v28l8 28l-4 8q8 36 8 64l8 12l4 28l4 24l44 120q0 16 12 44v12l36 88l28 40l12 24q28 40 48 60q100 72 204 84q28 -8 44 -14z" />
<glyph unicode="1" horiz-adv-x="524" d="M152 1443l-4 -20l-12 -28q-4 -8 -16 -28l-20 -24q-8 -24 -20 -40q-8 -24 -20 -40q-4 -24 -16 -40q-16 -60 -44 -100l8 -16l20 4q12 24 16 44q12 20 16 40l92 176l4 -40v-84l-4 -20q4 -40 -4 -68l4 -12q-4 -20 0 -32l-4 -16v-40l-4 -16q0 -44 -4 -72q4 -20 0 -32 q12 -36 8 -92l8 -80l-4 -12q0 -20 -4 -32q4 -24 0 -44l4 -12v-156l4 -28l4 -52l-4 -20v-44l4 -16l-4 -12l4 -16q-4 -60 4 -100l-4 -32l4 -144q-72 -24 -132 -12q-12 -16 -12 -32l24 -8l20 4l88 16q24 -4 44 0l12 -4l44 -4q24 -8 64 -4h28l8 4q40 -8 72 -4q12 8 16 12 q0 16 -12 24q-128 -24 -232 8l-4 24l-4 24v100l4 12l-4 8v48l-4 24v80l-4 8l4 80l-4 16l-4 16v20l-4 12q8 36 4 68v124q0 40 4 64l-4 20v112l-4 32l-8 28l8 164l4 8l4 144q-12 84 8 148q4 24 -20 28q-12 -8 -16 -16z" />
<glyph unicode="2" horiz-adv-x="770" d="M196 1375q-24 -52 -28 -84l-20 -40l-28 -96q-12 -24 -12 -40q-20 -40 -16 -80q-12 -24 -16 -44q20 -16 40 -12l8 12l-8 32l4 20q4 32 12 56l4 16l12 24l20 68l8 16v12q16 28 20 52l8 16l16 48q116 108 260 76q128 -56 160 -172v-40l-4 -8l-8 -64l-12 -24q-12 -24 -16 -44 q-20 -24 -28 -40l-4 -8q-24 -28 -36 -56l-32 -68l-12 -20l-8 -20l-12 -8q0 -8 -8 -28q-16 -20 -24 -40l-64 -108q-16 -32 -28 -48l-12 -32q-16 -24 -24 -48l-8 -12l-144 -272l-8 -8l-56 -96q-16 -36 -32 -60l-60 -76q4 -20 16 -32q8 0 28 8q44 0 72 12q36 -4 68 4h20 q52 0 88 8l24 -8l92 4q24 4 40 4l28 4l12 -4l24 4l52 -4q40 0 64 -4q20 8 20 28l-16 12q-44 -8 -76 -4l-72 4l-16 -4q-52 4 -92 -8l-8 4q-28 -8 -48 0h-108l-12 -4q-24 0 -44 -8q-20 0 -32 4q-32 -8 -60 -4l28 52q24 36 32 64l24 40q24 32 48 76l8 20l12 12l12 20 q16 52 40 84l4 12l40 72q24 36 36 66t24 50q16 40 32 64l60 100l36 64q8 8 16 28l20 44l16 24l12 36l8 8l60 96l4 12q12 20 12 32l12 36l12 68q-32 236 -256 240h-36q-112 -20 -184 -88z" />
<glyph unicode="3" horiz-adv-x="950" d="M148 1297l28 -4l16 48q104 116 236 92q88 8 164 -28q168 -156 108 -356q-4 -116 -100 -160q-80 -60 -172 -44l-8 -28l16 -12q32 0 84 4q76 20 140 4q204 -156 140 -384q0 -112 -48 -196q-76 -116 -192 -148q-152 -108 -304 -36q-148 56 -216 192q-44 16 -40 -28l32 -8 q104 -184 300 -204q140 -32 244 56q248 92 252 332l4 32l4 8l8 32l-4 12q8 40 4 72q-12 192 -160 296l-12 4q-32 4 -56 12l28 20q24 12 38 30t18 30l32 64q88 444 -320 472q-220 -12 -264 -176z" />
<glyph unicode="4" horiz-adv-x="698" d="M412 1455q-4 -32 -28 -56q-4 -12 -8 -16q-4 -12 -8 -16l-48 -84l-4 -12q-12 -36 -28 -60l-24 -36q-4 -12 -12 -16l-8 -20l-100 -172q-8 -24 -36 -60l-12 -20l-16 -24l-24 -56l-56 -68l12 -28h28q36 12 64 16q8 -4 28 -4q52 12 92 8h24q32 8 56 4l8 4l104 4l20 -8v-84 l4 -44q-8 -48 0 -92q-4 -20 0 -32l-4 -8q4 -44 -4 -72v-40l-4 -28q-8 -36 -8 -64v-124q-8 -52 -4 -88l-8 -48l12 -16q20 0 32 8l4 20l-4 44v64l4 8q-8 40 0 72v96l4 16v20l4 8q-4 32 4 56l4 80l-4 8q4 32 0 60v188l28 8q52 -4 92 4l12 24l-12 12l-44 -12h-72v156q-4 40 4 68 l-8 240l4 32l4 28q-20 80 -4 148l-12 20h-12q-16 -12 -36 -16zM436 1367q12 -40 8 -100l-4 -44v-100q8 -24 8 -48q-4 -92 -6 -124t2 -56l-4 -12q8 -64 -4 -108l-20 -8q-60 12 -108 -4h-20q-32 -4 -56 0h-44q-84 -16 -140 -12q32 40 44 76q36 52 48 76q24 32 48 84l24 40 q4 12 16 32l12 24q32 44 68 112l48 104l8 8l12 20l4 12q32 44 48 80q8 -24 8 -52z" />
<glyph unicode="5" horiz-adv-x="838" d="M708 1443h-24q-16 0 -44 -8q-28 0 -52 -8q-60 8 -108 0h-24l-8 4q-8 -4 -28 0l-12 -4l-12 4l-92 4l-12 8l-32 -8l-4 -12q-16 -40 -28 -96v-12l-12 -12l-4 -8l-4 -28l-36 -84q-8 -40 -20 -64q0 -8 -8 -28l-12 -20q-12 -20 -12 -36q-20 -28 -28 -48l-12 -44l-20 -64v-12 l-8 -8q-4 -32 -16 -56l28 -12q288 156 508 -52q148 -176 84 -380l4 -12l-12 -36l-4 -32l-12 -28q-16 -56 -36 -88q-176 -184 -404 -148l-32 20l-8 8q-36 20 -56 40q-48 44 -88 60q-8 -20 -4 -36q52 -24 84 -60l12 -16q40 -12 64 -40q292 -52 468 164q148 332 -4 568 q-176 228 -444 144h-12l-24 -4l-60 -12l12 44q4 8 8 24q12 56 32 92l12 24l8 28q16 28 24 52q8 40 20 68l8 12l12 44l12 32q12 32 24 52q4 48 28 84h84l8 -4h32q56 -8 100 0h88l32 4l28 8q48 4 80 -8q28 36 -16 44z" />
<glyph unicode="6" horiz-adv-x="840" d="M394 1469q-8 -2 -8 -6q-16 -32 -36 -52l-12 -12q-16 -32 -40 -52l-12 -24l-12 -12l-4 -12q-20 -20 -28 -40l-36 -48q-12 -28 -28 -44l-4 -28l-20 -44q-12 -40 -28 -64l-12 -44l-4 -28q-16 -40 -20 -68v-20q-16 -32 -16 -56q-12 -28 -16 -52l-28 -136l-4 -20l-3 -27l-1 -5 q-12 -28 -16 -52q8 -32 0 -61l4 -7l-4 -24q0 -24 -4 -40q-8 -32 -4 -56q-12 -48 0 -88q-4 -32 0 -60l12 -20q24 -80 72 -132l36 -28h16l52 -8l12 4q24 -4 40 -4h52l28 -4h72l12 4l36 4l28 12q44 16 60 16l20 20q32 24 48 40l48 68q0 8 12 24l12 24q20 44 24 72l4 8 q12 20 16 36q8 44 20 72q8 252 -132 428l-32 12q-32 28 -64 44q-256 8 -420 -156q4 8 6 16t6 28q8 56 20 88q4 8 8 28q4 36 12 64l4 16q12 20 12 36q12 32 16 56l8 16q36 56 44 104l12 12l36 60l12 16l20 32l12 12l32 44q20 20 28 32l24 32l44 24q4 32 -28 40q-8 -8 -16 -10 zM394 847q64 8 116 -4l12 -8l16 -16q36 -20 64 -44q100 -176 104 -352q-44 -232 -192 -360q-140 -52 -272 -28q-208 -20 -216 236q0 32 4 76q0 12 4 16l-4 8q8 20 4 36q4 12 4 32l8 24v16l16 100l16 28q12 52 36 100q124 116 272 144z" />
<glyph unicode="7" horiz-adv-x="910" d="M92 1451l-88 -4v-32q12 -4 40 0l28 4l64 5q52 7 120 7q24 -8 44 -4l48 -4l64 4l20 -4l24 4h20l28 -4l8 4l8 -4l12 4l76 4l20 -8h28l16 -4l12 4l64 -4l-16 -16l-8 -12l-28 -56l-20 -24q-16 -16 -24 -28q-20 -40 -44 -64q-4 -12 -16 -24l-16 -24l-4 -12l-40 -64 q-8 -20 -20 -32l-12 -24l-12 -28l-8 -8l-48 -116q-16 -40 -32 -64l-24 -60l-8 -12l-20 -44q-12 -20 -16 -32l-24 -40q-12 -20 -16 -36q-4 -8 0 -12q-28 -60 -44 -84l-4 -12q-12 -36 -28 -64l-4 -12l-12 -32l-12 -28q-16 -40 -32 -64l-4 -20l-20 -40q0 -8 -12 -28l-12 -32 q-12 -24 -16 -40l-20 -44q-12 -36 -28 -60l8 -24q16 -8 28 -4q4 36 28 80q0 8 8 28l16 28l196 472l16 28q24 56 44 88l8 20q20 36 28 60l12 16l4 16q24 44 32 76l52 104l4 12l16 28q20 36 36 56l44 80l16 20l88 128q8 12 12 16q32 48 72 72l8 24l-32 12l-60 -8q-52 -8 -88 0 l-76 4l-20 -4l-40 4l-52 -4q-32 0 -56 -4l-16 4h-48l-12 4h-24l-17 1l-95 -2z" />
<glyph unicode="8" horiz-adv-x="860" d="M148 1283q-116 -304 92 -512q-232 -140 -232 -376q-16 -80 0 -144q52 -288 320 -248l8 -4h64q172 24 292 128q68 100 64 208l8 36q4 288 -244 388q200 144 156 360q-28 204 -176 316q-36 12 -64 12q-188 -36 -288 -164zM468 1407q208 -156 184 -404q-80 -264 -280 -224 l-72 -4q-120 80 -144 208q-36 100 -4 188q28 180 196 208q36 20 68 28h52zM352 735l44 -4q100 4 180 -32l28 -28q20 -16 32 -32q52 -36 76 -96q56 -240 -52 -396q-160 -136 -344 -112q-184 -20 -248 140q-52 116 -28 224q-4 152 100 240l4 8l68 68l24 16q28 0 52 8z" />
<glyph unicode="9" horiz-adv-x="790" d="M16 892q20 -212 212 -268q188 -68 348 16q-136 -376 -400 -580l-8 4q-80 -36 -152 -32q-12 -8 -12 -24l8 -8h40l8 4q28 0 48 8h24l12 8l28 12q44 16 72 36l100 96l4 8l16 20l56 60l8 16q8 24 24 40l4 8q12 20 16 36l8 8q12 24 16 28l20 32v12l12 20l16 28l28 76l4 8 q44 68 52 136q24 52 24 100q76 244 -16 456q-76 224 -324 216q-392 -112 -296 -580zM640 1096l12 -28q0 -36 8 -64l-8 -68v-12l-16 -72v-12l-16 -52q-4 -44 -20 -76l-12 -12l-36 -28q-156 -84 -308 -20q-180 64 -200 240l4 36q-8 4 -8 12q4 40 -4 68v36l-4 44l4 92 q76 204 264 260q328 -4 340 -344z" />
<glyph unicode=":" horiz-adv-x="160" d="M0 36q40 -76 56 8q-20 12 -36 12zM0 736q40 -76 56 8q-20 12 -36 12z" />
<glyph unicode=";" horiz-adv-x="160" d="M69 67q-5 -19 -4 -32q-8 -60 -32 -103q-4 -45 -25 -76l-26 -6l-4 18q53 106 54 201q15 8 27 9zM0 731q40 -76 56 8q-20 12 -36 12z" />
<glyph unicode="&#x3c;" horiz-adv-x="557" d="M360 83l-8 8l-100 140q-20 28 -32 40l-16 20q-36 44 -56 60q-4 12 -8 16l-8 12l-16 16q-12 24 -28 36l-48 80l24 24l16 20q28 28 44 52l80 88l28 36l8 16q4 8 20 28q16 28 32 44l20 28q12 20 24 28l32 52q20 20 32 40v36q-24 20 -32 -8l-16 -36q-20 -24 -32 -48l-12 -16 l-12 -16l-60 -76l-4 -8l-28 -44l-8 -8q-16 -24 -32 -40l-20 -28l-112 -128q-28 -20 -44 -40l16 -24l20 -16l12 -20q28 -44 52 -68l12 -16l32 -44q28 -36 52 -56q4 -12 12 -16l36 -48l20 -20q12 -20 36 -48q16 -36 36 -56q12 -28 16 -52l24 -12q20 32 -4 72z" />
<glyph unicode="=" horiz-adv-x="820" d="M26 523h44l28 -4h72l24 4h44q36 -4 64 0h112q24 -8 40 -4q32 -4 52 0h116q20 0 32 4l28 -4q24 28 -12 32l-20 -4h-64q-36 -4 -64 0q-40 -4 -68 0l-36 4l-8 -4l-64 4l-44 -4q-12 4 -16 0l-72 4q-28 0 -48 -4q-116 4 -148 12q-12 -24 8 -36zM674 367h-20l-12 -4l-28 -4 q-20 0 -32 -4l-8 4l-36 -4l-28 -4l-152 4l-16 4h-16l-44 -4h-76q-12 0 -16 4l-12 -4h-104q-36 -8 -64 -4l-8 -8l8 -28l28 4q44 8 76 4l8 4l8 -4h132l56 8q52 -8 88 -4h80l12 -4q16 4 40 0q44 8 76 4q76 0 104 24q-12 20 -32 20z" />
<glyph unicode="&#x3e;" horiz-adv-x="566" d="M40 927l8 -8l100 -140q20 -28 32 -40l16 -20q36 -44 56 -60q4 -12 8 -16l8 -12l16 -16q12 -24 28 -36l48 -80l-24 -24l-16 -20q-28 -28 -44 -52l-80 -88l-28 -36l-8 -16q-4 -8 -20 -28q-16 -28 -32 -44l-20 -28q-12 -20 -24 -28l-32 -52q-20 -20 -32 -40v-36q24 -20 32 8 l16 36q20 24 32 48l12 16l12 16l60 76l4 8l28 44l8 8q16 24 32 40l20 28l112 128q28 20 44 40l-8 16l-20 16l-20 24q-16 32 -36 52l-12 16l-40 56l-16 20l-28 28l-20 24l-40 48q-12 20 -24 28l-16 24l-8 8l-12 20q-32 44 -48 80l-4 24l-24 12q-20 -32 4 -72z" />
<glyph unicode="?" horiz-adv-x="530" d="M0 1277q8 -24 28 -16q32 96 124 112q80 48 152 4q164 -152 68 -356l-4 -12l-36 -76l-12 -16q-24 -32 -36 -56q-192 -176 -156 -404l-4 -16v-40l-4 -8v-48l-4 -24l12 -16q16 0 24 12q4 32 0 56l4 20v88l4 16v68q0 32 8 60q12 20 12 36l8 8l44 84q316 312 140 616l-8 8 l-60 44l-8 4l-64 12q-180 -28 -232 -160zM140 9q36 -20 40 20q-12 16 -28 16q-12 -16 -12 -36z" />
<glyph unicode="@" horiz-adv-x="1270" d="M164 1250q-116 -152 -116 -320l-8 -28l-12 -52q-8 -60 -20 -100l4 -32l-4 -16q0 -24 -8 -44q8 -48 0 -88q8 -28 8 -52l4 -8l12 -28q-4 -32 12 -56q48 -336 344 -404q296 -96 504 96q68 48 48 80h-16l-8 -8l-24 -20l-24 -28l-8 -4l-16 -16l-12 -4q-12 -12 -32 -24l-24 -16 l-8 -8q-16 -8 -24 -16q-24 0 -40 -16l-8 4l-24 -16l-12 4l-8 -4l-28 -4l-12 4q-88 -4 -152 16q-184 20 -280 152q-32 24 -48 52q-48 96 -52 180q-56 152 -28 292l-4 12l4 12v24l4 12l4 28q8 52 20 88q24 300 232 480l28 12q20 16 36 20q364 252 664 -120v-12q32 -48 40 -96 l8 -16v-12l8 -20v-16q12 -24 12 -48q20 -40 28 -68q8 -72 0 -124q20 -300 -132 -524q-80 -48 -156 -40q-44 64 -32 132l4 8q0 52 20 88q-4 60 4 88l8 16q4 28 8 52l4 20l4 16l4 20l4 24q16 60 20 100l-4 24q0 20 -4 32q-4 36 -12 64q0 60 -24 100l-16 16q-28 36 -52 56 q-32 28 -48 56l-16 -4q-152 68 -300 -8l-40 -28l-8 -16l-8 -8l-48 -64q-20 -44 -44 -72l-12 -56l-8 -16q-4 -28 -4 -48l-4 -28l-8 -28v-12q-4 -32 -8 -80v-28l4 -44v-80l4 -12q0 -24 4 -28l4 -28q0 -44 12 -72v-24l8 -8l36 -92l28 -44q20 -12 32 -24q292 -80 416 144 q0 -168 140 -144q88 32 140 88q188 376 80 740q-32 204 -184 316q-100 108 -232 112l-20 8l-28 4l-44 4q-304 -60 -456 -292zM760 1130q28 -16 40 -40q12 -8 24 -28q12 -32 12 -56v-12l16 -48v-12q8 -48 8 -80l-16 -52l-4 -44q-8 -24 -12 -60l-12 -32l-4 -24 q-12 -36 -12 -64l-8 -12v-12l-12 -28v-12l-32 -80l-68 -80q-104 -100 -228 -64q-56 4 -92 16q-80 108 -92 224q-8 24 -4 40l-4 24l-4 48q0 32 -4 56l4 12q-12 76 8 140v12q8 44 4 76l12 20q44 136 140 220l20 12l104 32q136 4 216 -92z" />
<glyph unicode="A" horiz-adv-x="800" d="M372 1436l-4 -24l-16 -56v-12q-12 -32 -12 -60l-12 -44l-12 -24l-16 -48l-4 -36q-8 -36 -20 -60l-4 -20l-4 -24q-20 -44 -20 -80v-16q-12 -32 -12 -56q-12 -28 -12 -52l-8 -16v-12l-4 -28q-4 -24 -8 -32t-4 -28q0 -28 -8 -48l-4 -44q-28 -52 -36 -92l-16 -48 q-4 -32 -12 -56l-12 -36l-4 -16l-8 -20l-8 -8l-16 -48q-12 -24 -16 -40q0 -8 -12 -28q-4 -44 -16 -76q-4 -28 -12 -48q-8 -56 -20 -88l8 -12q16 4 24 32l12 64l12 44l20 92l16 44q12 32 32 76q0 8 8 28l4 20l8 16l40 140l12 -8q12 4 20 2t28 2l12 -4h28q60 4 100 0h60 q64 24 116 -4l16 4l8 -52l4 -32q16 -44 16 -80l8 -12v-16l12 -48l8 -12v-12l8 -44q16 -48 24 -104q12 -72 12 -124l20 -12l12 4l-12 68l-4 32q-8 60 -28 144q-8 24 -12 56l-12 32l-4 20l-12 40q-4 16 -8 52q0 16 -12 52v12q-12 36 -12 64l-8 16l-44 152q4 24 -4 40 q0 24 -4 28v12l-4 24q-12 36 -16 64l-12 32q-4 24 -8 28v24l-12 44q-8 24 -8 44q-8 24 -8 40l-4 8q-40 104 -36 184q-20 60 -12 112q0 20 -20 20zM404 1288l4 -12q-4 -44 8 -76l20 -48l-4 -12l8 -12l28 -124q0 -32 12 -56l16 -64q4 -28 16 -64q0 -28 8 -56l4 -20l4 -28 l8 -40q20 -48 20 -88q-24 -4 -60 -4l-40 -8h-32l-12 -4l-16 4h-60q-24 -4 -28 0q-20 0 -32 -4l-12 4q-44 -4 -72 4l12 24l28 180l4 12l4 28l28 100q0 28 4 32q8 56 24 92v12l16 52l4 8q8 76 36 128q8 24 8 44l4 12l16 80q24 -48 24 -96z" />
<glyph unicode="B" horiz-adv-x="658" d="M128 1464l-8 -4h-44q-32 -8 -60 -4l-4 -28q0 -48 12 -80q0 -36 -8 -64v-24l4 -8q0 -28 4 -48q4 -44 2 -60t-2 -40l-4 -44v-56q12 -36 8 -64v-12q-8 -36 -12 -92v-24q0 -44 4 -68v-64q-4 -48 -4 -80l-4 -16v-28q0 -56 12 -88v-36l-8 -68l4 -172l-4 -12v-72 q-16 -40 -16 -72l20 -8l12 28v24l8 48v88q8 80 -4 136l4 48l8 24v56q-16 64 -16 108q-4 52 28 80h12l32 8l8 -4l24 4q28 4 68 20q40 4 68 20l28 -16h12q24 -16 48 -20q144 -132 172 -300q44 -284 -320 -356h-20q-32 8 -52 8q-32 0 -52 -8q-32 8 -60 8q-16 -12 -16 -32l28 12 q52 -16 92 -4q84 -16 148 20q156 28 252 140l24 88q28 156 -48 272q-64 148 -196 204q28 32 44 60l12 12l52 52l20 28l28 28q12 24 24 36q116 340 -176 512l-12 -4l-16 4l-128 8zM196 1444l16 -4q44 0 68 -4q36 -4 60 -12q112 -92 156 -212q32 -212 -108 -352l-8 -12 q-32 -28 -48 -52q-20 -32 -40 -52l-8 -4q-56 -12 -92 -36l-28 4q-68 -24 -124 -12l4 44l-4 12l-4 80l4 12l4 72q0 12 2 22t6 14l-4 12l-4 36v44q-4 32 0 56q4 8 2 18t2 38q0 40 -8 68q4 32 0 56l4 12v60q-8 44 -8 72l32 8q48 0 84 12q24 -4 44 0z" />
<glyph unicode="C" horiz-adv-x="700" d="M116 1306q-8 -20 -16 -32l-8 -52l-4 -8q-32 -76 -28 -144v-12q-16 -32 -16 -60l-12 -48q-4 -48 -4 -80q-4 -8 0 -16l-4 -16l-4 -16q0 -40 -6 -70t-2 -54l-4 -20q0 -60 -4 -84l-4 -12l4 -144q4 -12 8 -36v-32l4 -16q4 -20 12 -40q0 -32 4 -56l8 -36l8 -16q12 -24 16 -44 l64 -88q164 -108 332 -68q72 44 108 108q24 16 36 32q-8 20 -36 8l-28 -28q-40 -68 -104 -96q-152 -24 -280 64l-32 36l-4 8l-12 16l-28 44l-4 20l-8 16l-12 56v28l-4 12l-16 80l-4 44l-4 96l4 12l16 272q4 12 4 40q8 36 8 64l4 16v16q8 56 24 88q-4 60 12 100 q60 284 328 260l32 -20l12 -16q32 -12 52 -28q0 -8 8 -24q16 -40 28 -60q8 -56 24 -92l20 8q0 84 -48 148q-56 132 -220 116q-144 -32 -220 -144z" />
<glyph unicode="D" horiz-adv-x="740" d="M0 1476q16 -40 12 -76l4 -96q4 -40 -4 -68l4 -12q-4 -28 -4 -48v-12l4 -20q8 -24 8 -48v-12q-8 -64 0 -112v-16q4 -8 0 -16l4 -12l-4 -8v-64l4 -20l4 -28l4 -44v-32l-4 -44l4 -20q4 -44 12 -72q0 -48 -4 -80l-8 -68q8 -32 8 -56q4 -12 4 -40l-8 -56l4 -120q-4 -32 -4 -56 v-16q4 -24 2 -42t10 -30l-8 -32l40 12q276 4 452 180l4 12l48 80q8 36 20 60l4 16l4 32l16 100q4 28 4 44t8 44l-4 16q8 24 6 48t-6 40l4 8l-4 28q0 44 -8 72v48l-4 16l-4 28l-16 140l-4 12v24q-8 24 -8 48l-12 32q-20 32 -28 58t-16 42q-16 36 -36 64l-8 20l-8 8l-52 72 l-8 8q-20 12 -28 24q-44 20 -76 44l-16 4l-48 12l-20 4h-44q-24 -4 -44 0l-16 -4l-12 4l-52 -4q-36 8 -64 8q-8 -16 -8 -28zM424 1384l12 -20q8 -8 20 -28l20 -32l4 -8q24 -32 36 -56v-12l8 -12l52 -124v-20l4 -12v-32l4 -12v-32q12 -36 8 -64l4 -32l12 -44l-4 -12l4 -12 v-24l4 -12l4 -32q-8 -56 8 -100q-8 -24 -8 -60q-4 -24 -8 -68l-4 -36l-4 -24l-4 -36l-20 -100l-48 -100q-140 -164 -332 -176q-64 -28 -124 -16l4 12l-4 12l-12 72l8 28l-4 96q-4 40 4 68l4 16v64q-16 80 0 148l-4 28l-4 68q-12 36 -4 64v28l-8 28q4 20 0 32l-4 176 q-4 24 -4 40l4 68q-4 44 -12 76q0 44 4 60v64l-4 20l-4 168q32 8 56 4q72 -8 120 4q128 -24 216 -96z" />
<glyph unicode="E" horiz-adv-x="730" d="M420 1456l-8 -4l-24 -8l-60 4l-48 -12l-92 -4l-16 4q-36 8 -64 8l-8 -4q-56 12 -92 12q-4 -12 -8 -16q20 -84 8 -152l4 -8q-4 -12 0 -16l4 -28v-128q4 -44 0 -72l4 -40l8 -200l4 -28v-88l4 -12q0 -32 4 -52v-116q-4 -24 -4 -40v-64l4 -24q-12 -36 -14 -62t2 -46 q4 -48 0 -80l4 -24l4 -128l-12 -20l20 -8q24 12 48 12l52 -4l44 4l80 -4q4 0 24 8l8 -4l192 -8l12 4h32q56 16 96 16q8 24 -16 28q-52 0 -96 -20l-24 -4l-24 4h-36l-28 4q-8 -4 -16 0q-44 4 -72 0q-24 4 -44 0h-216v60l4 28q-12 44 -8 76l-4 100q-4 32 8 56q4 36 0 64l4 148 q0 32 -4 56l-4 120l8 8q36 -8 64 0q28 0 44 4q24 -8 44 -8q40 -4 68 4q12 -8 24 -8q8 12 8 24l-20 8l-44 -4h-48l-20 4h-68q-32 -4 -60 4l-4 16l4 36l-4 20q4 12 0 16l4 12q-4 24 -4 40l-8 28l-4 100q4 16 0 28l-4 36v16q8 36 0 92q0 24 -4 40v36l4 16l-4 28v72l28 12l8 -4 q32 4 60 -4h12l48 -8l20 4q28 0 48 -4l16 4q32 0 56 8h44q44 8 72 8q64 -4 108 0q68 12 -4 32q-68 -16 -128 -4z" />
<glyph unicode="F" horiz-adv-x="630" d="M464 1464q-64 4 -100 -8l-32 -4q-32 8 -60 0q-64 16 -120 0q-28 8 -48 0q-56 8 -104 -8l4 -20l4 -32l8 -44l-4 -28v-24l4 -8l8 -64q-4 -44 -4 -70t-4 -30l8 -196q0 -32 8 -56v-28l4 -12l-4 -24l8 -12v-28l4 -16q4 -60 16 -100v-60l-4 -24l4 -88l4 -20l4 -20v-40 q-4 -12 0 -32l12 -160q-8 -24 -8 -44v-12l8 -12l-4 -12v-32l-4 -8q8 -40 0 -72l20 -16l12 4l4 32q-8 48 -4 108l-4 52v80q-12 36 -8 68v56l-4 16q8 64 -8 116v44q8 72 -4 120l20 12q32 4 56 0l8 4h152l8 -8q24 4 36 8v20h-48l-16 4h-80l-20 4l-28 -4q-56 4 -88 0l-8 12v16 l-4 24l-4 20q-12 48 -8 80l-4 12l-4 128q-8 72 0 120q0 32 2 56t-6 44v40q-4 24 -8 28v12q4 36 -4 68l4 24l28 8h28l12 4q32 -4 56 0q32 8 58 6t62 -6q28 0 48 -4l16 4q28 0 48 4q96 -4 156 12q-20 32 -64 20z" />
<glyph unicode="G" horiz-adv-x="720" d="M164 1396q-4 -12 -8 -16l-4 -12l-12 -24q-20 -40 -28 -52l-16 -44l-8 -8l-12 -28l-16 -44v-12l-4 -24q-20 -64 -16 -116l-24 -104l-4 -52v-40l-8 -28q4 -44 -4 -72l8 -28v-24q-8 -28 0 -52l4 -12q-12 -76 8 -140v-52l4 -12q4 -44 16 -96l16 -72q8 -120 80 -200 q84 -36 164 -32q8 8 28 12q24 12 46 16t38 16l80 32q136 120 124 284q0 20 -4 32q12 44 4 80h-24q-36 -8 -64 -4l-8 -4l-40 -12l-24 -4h-128l-20 -12l16 -24q24 0 40 8q24 -4 44 0l16 -4q40 8 72 8q48 20 88 16q60 -348 -324 -412q-76 4 -128 48l-8 20l-16 24l-16 40l-4 24 l-4 24v24l-8 20q-4 40 -12 68l-4 44l-4 20l-4 20q-4 72 -16 120v12q4 20 0 44q4 80 -12 140l4 8l4 24q0 40 12 72l-4 8v64q8 40 20 68l4 24q4 84 12 108l24 100l8 12l32 72q24 64 60 108q56 24 106 22t82 -18q56 4 84 -36h20l8 16q-16 24 -28 36h-12l-24 12l-16 -4 q-60 24 -116 16q-24 8 -40 4q-60 -12 -100 -40z" />
<glyph unicode="H" horiz-adv-x="760" d="M0 1408l16 -36l-4 -12v-40q12 -64 12 -108l-4 -32q8 -48 4 -80v-80l-8 -44q0 -32 -4 -56v-68q-4 -24 0 -64l4 -12l4 -192q-8 -52 0 -88q0 -24 4 -60l-12 -88l4 -20q4 -44 -8 -80v-36l-4 -20l4 -12q0 -24 -4 -28l4 -12l-4 -28q8 -48 0 -88q16 -12 32 -12q0 8 4 28 q-8 20 0 36l-8 28v88l4 12q-4 44 8 104l-8 56q4 36 12 56v52l-4 24q0 24 -4 40l4 16q-4 52 4 92q12 0 16 -4h40q40 -8 68 -4l24 -8q32 8 60 0q8 4 28 4t32 4l44 -4q32 0 56 4h36l12 4l8 -4l12 4q32 0 52 4q40 0 72 -20v-36l4 -20v-16l4 -32q0 -24 4 -40l-4 -8q4 -64 12 -100 l-4 -24q-12 -48 0 -88l-4 -44v-40l-4 -12l4 -24l-4 -16q0 -60 -4 -100q4 -16 20 -24l16 16l-4 12v68q0 12 4 16v32q-4 48 4 84l-4 84q8 32 0 88v84l-4 20v40l-4 12q0 32 -4 56l-4 60v72l4 12q-8 48 -4 80v44q-4 24 4 64l-4 220q8 52 4 88q20 92 4 172q-20 0 -20 -20v-88 l-4 -16l4 -12l-4 -12q-4 -48 -4 -80l-4 -12q4 -12 0 -16v-132l4 -8v-64l-8 -88q8 -48 0 -80q8 -36 0 -68q8 -36 -4 -64q-48 8 -88 0h-60l-8 -4q-72 -8 -120 0l-136 -4l-16 4h-40l-88 12l-4 24q4 32 -4 60l4 12l-4 12q0 24 4 28l-4 28v112l4 16l4 40q0 36 4 56v60 q-8 40 -4 68v72q-8 24 -12 56q4 60 0 100q-16 8 -28 8z" />
<glyph unicode="I" horiz-adv-x="610" d="M380 1476q-16 4 -44 8l-16 -4l-100 -12l-8 4q-20 0 -32 4q-72 4 -124 -8q-24 12 -40 12q-12 -8 -16 -16l8 -20q20 0 32 4q24 -4 40 0q96 4 156 -8l4 -20l8 -20l-4 -56q4 -36 12 -64l8 -108q4 -24 0 -52l4 -12q-4 -40 4 -68l-4 -12q8 -24 8 -76l-4 -8l4 -12 q-8 -80 12 -140l-4 -32l-4 -32q0 -28 4 -32l-4 -12l8 -20q-8 -48 4 -84l-4 -24v-88l4 -8v-76l-8 -24v-40q8 -36 4 -64l-8 -56l4 -20l4 -32l-4 -28q4 -44 0 -72l-4 -8q-8 4 -16 0q-56 -8 -92 -4q-60 -12 -108 4q-16 -12 -20 -28l12 -4l36 -4h80q44 0 72 8h12q24 0 40 4l48 4 l32 -4l8 4l8 -4q60 8 108 -4l12 12l-4 28l-12 -4q-32 -4 -56 4q-72 -12 -120 0v16q-8 24 -8 40l4 8l-8 104l8 20v52q-12 72 4 124v16l-4 8v60l-4 24q12 76 -4 132l4 12l-4 28q4 48 0 80q8 64 -12 116l4 80l-4 24v20q0 40 -8 68l4 80l-4 20l-4 68l-4 20l-4 16l-4 20l-4 32 q8 56 -8 100l32 12l32 4l28 -4l120 4q0 24 -20 32h-8z" />
<glyph unicode="J" horiz-adv-x="720" d="M476 1442l-28 -8h-12q-72 -12 -120 -8q-32 0 -52 -8l-12 4q-52 -4 -92 4q-12 -4 -16 -8q8 -16 16 -24l44 -4q80 16 144 4q-4 -20 0 -32q8 -60 0 -100l16 -484l4 -32l8 -28v-44l4 -16l-8 -28q4 -60 0 -100l4 -128l-16 -108l-4 -20v-16l-4 -8l-8 -24q0 -28 -4 -48l-24 -88 q-88 -144 -232 -4q-12 32 -24 48q-12 32 -32 56v56q-8 8 -20 8l-8 -12q4 -84 52 -144l4 -24q120 -128 260 -52l4 12q20 28 28 48q8 32 8 56l16 44v36l8 20q4 48 16 84q-4 16 0 28l8 56l-4 16v32l-4 16l4 16l4 200l-4 8v24l-4 12q0 20 -4 36t0 40l-4 8l4 28q-8 40 0 72l-4 20 l-4 24v32q-8 52 0 96q-8 52 -6 86t-6 82q0 40 8 68q-8 32 -8 60l8 16l60 8q76 20 144 0q56 -44 16 24l-12 4q-24 0 -44 8q-20 0 -32 4h-28z" />
<glyph unicode="K" horiz-adv-x="660" d="M500 1434q-4 -28 -12 -44q-4 -8 -10 -18t-10 -14l-12 -24q-4 -20 -16 -36l-4 -16l-16 -20l-44 -80q-4 -12 -8 -16q-12 -28 -24 -44l-4 -24q-28 -40 -36 -72l-12 -20l-12 -20q-4 -8 -16 -28l-24 -44q-36 -56 -64 -88q-12 -24 -24 -40q-8 -24 -24 -40l-4 -12l-20 -36 l-20 -32q-32 -28 -44 -56l-4 12v96l4 28v24q-8 72 0 120l-4 28l4 24v164l-4 8v168q-16 64 -4 120l-16 16q-16 -16 -16 -32l4 -24l4 -104l4 -24q-4 -20 0 -32l-4 -44q0 -32 4 -56l4 -44v-24q0 -76 -4 -124q0 -32 -4 -56v-32q8 -72 0 -120l4 -8l-4 -16l8 -128l-4 -12v-116 q-4 -64 8 -108v-40q-4 -28 0 -64v-40l4 -16v-136q12 -16 28 -16l8 24l-4 24l-4 64q8 28 -4 72q0 32 -4 72l4 28l-8 44v16q-4 40 0 68l-4 16l4 16v16q-4 60 0 100l16 4l8 16q20 56 60 88q8 28 24 48l8 -8l40 -68l4 -12l40 -80q24 -32 36 -60l12 -16l20 -28l36 -52 q16 -24 24 -48l20 -28l8 -20l40 -60l8 -16q20 -56 48 -88l4 -20l36 -104l28 -12q8 16 4 32q-16 24 -20 48l-16 36l-8 8q-8 32 -20 52q-20 32 -28 56q-28 52 -56 84l-8 20q-16 16 -20 36l-28 48q-20 24 -32 44l-12 12l-28 48q-20 36 -34 58t-18 42q-16 36 -32 56l-20 56 l-20 12l16 24q0 8 12 24l24 40l12 12l4 8q12 20 24 32l12 24l16 24l56 108q20 36 28 64l12 16l16 44l8 8l12 24l36 60l8 24l36 72l8 8l12 16q8 24 20 36q0 32 -28 32z" />
<glyph unicode="L" horiz-adv-x="649" d="M9 1414l-4 -44l4 -8l4 -44l-4 -28v-20l-4 -44v-120l-4 -12l4 -20q-4 -32 4 -60q-4 -32 0 -60l-4 -28l4 -16q4 -32 0 -52l4 -32v-44l4 -52q-8 -28 -4 -52q-12 -48 -4 -84l-8 -12q8 -12 4 -24v-168q0 -36 -4 -64q4 -12 0 -16l4 -16v-40l4 -12q-8 -28 -4 -52v-12 q8 -48 0 -88v-12q0 -36 -4 -64l16 -12q32 4 56 0l20 8l28 -4h20l24 8l8 -4l8 4l52 -4q32 4 60 -4q24 4 40 4l48 8l16 -4l28 -4l8 4h44q36 8 64 0q12 8 12 20l-20 12l-32 4l-64 -8h-24q-16 4 -28 2t-22 0t-20 0t-14 -6h-40q-32 4 -80 0l-16 -4q-8 4 -28 0q-20 0 -32 4 q-52 -8 -84 -4l-12 16l-4 44v80l-4 16l-4 24q8 24 4 60l-4 68l4 20v180q-4 40 4 68q-4 20 -4 32l4 28q0 28 4 48v40l-4 8v24l-4 8l4 52l-4 16q4 32 0 76l-4 12q8 28 4 52v12q-12 56 0 100v40q-4 20 0 32q-8 72 8 124q-16 72 0 132l-20 20q-12 -16 -8 -52z" />
<glyph unicode="M" horiz-adv-x="1140" d="M-2 1452l8 -12q-4 -16 0 -48q0 -20 4 -32l-4 -8l4 -32l4 -8q0 -44 12 -72v-60q0 -12 4 -16l-4 -8l4 -156q-4 -8 0 -28l-4 -20v-16q0 -24 4 -40v-76q4 -60 0 -100q16 -52 12 -96l4 -28v-84l8 -12l8 -144l-4 -16l-4 -16l4 -120q4 -48 -8 -84q4 -44 0 -76l12 -12l24 12 l-8 24q8 32 4 56l4 68q0 32 -4 56l-4 40v16q0 28 8 48v20q0 32 -4 80q0 12 -4 16l-8 68v12q0 20 -4 32q8 36 0 64q0 52 -12 88v76q0 40 -4 64v88q8 80 -8 140q8 36 4 92v56q-16 72 -16 120l12 -32l8 -28l8 -12q12 -60 24 -84q4 -12 8 -36q12 -32 36 -76l8 -28q8 -44 20 -72 q12 -36 28 -64q8 -20 16 -32v-16l28 -80v-12q12 -40 16 -68l16 -28l24 -64q8 -44 20 -76l4 -20l36 -84l4 -16v-20q8 -24 8 -40l28 -72q4 -52 20 -96l36 -56q8 -20 8 -40l8 -12l12 -24l12 -60l12 -20h20l8 12l-4 20l8 12v12q16 32 32 52q12 32 24 48q4 24 16 40q16 52 12 92 l8 16q8 36 28 92v12l8 16q4 36 16 64q4 52 20 88l8 36v16l8 8l4 20l12 44q16 36 16 68l4 8l8 44l4 16l4 16l16 28l32 96q8 32 20 56v12l8 44q4 28 10 40t6 24l28 44l24 60q12 20 12 40l8 8l16 48q24 36 28 68l8 -24l-4 -20q8 -36 4 -64l4 -36v-44l4 -12q-4 -36 0 -64v-12 q0 -20 4 -32q0 -60 -4 -100l4 -104l4 -20v-20l4 -12v-68q8 -48 4 -84l4 -32q8 -36 12 -88q-8 -36 -2 -66t-2 -78l-4 -44q0 -32 -4 -52l4 -16l-4 -32l4 -24q0 -76 -4 -124q-8 -56 24 -88q8 8 8 20v36l-4 16v56l4 20l-4 44q4 8 0 28l4 28l-8 12l4 16v60q4 8 8 28l4 64l-4 28 l-4 36v28l4 8l-4 48l-4 20q0 24 -4 28l-4 28v48l-4 24l4 28l-4 44l-4 60l-4 8l-4 76l4 12l-4 12l4 80l-4 12l4 12l-4 64q0 24 -4 46t-4 38v24q4 44 -4 68q4 32 0 60l20 20q-8 20 -28 20q-32 -16 -48 -36v-36q-20 -32 -28 -56l-16 -56l-24 -56l-12 -20l-32 -60l-4 -16l-8 -20 q0 -40 -12 -72l-12 -40l-12 -40l-52 -144l-4 -28q-8 -56 -24 -88l-8 -24q-8 -40 -28 -96q-4 -40 -12 -68l-4 -16l-4 -16l-4 -16l-12 -44q-4 -24 -12 -40l-20 -56q0 -48 -8 -80q-28 -104 -88 -164l-4 12l-4 12l-68 148q-4 16 -6 28t-6 40l-12 40l-8 8l-8 24q-4 44 -24 104 l-36 84v12l-20 72q-4 20 -12 32l-12 28l-40 132q-16 72 -52 124l-4 12l-4 24q-12 40 -16 68l-12 40l-4 8q-32 48 -52 132l-4 12l-4 20l-4 16l-24 60l-12 28q-4 24 -16 40l8 24l-24 16q-24 -8 -12 -28z" />
<glyph unicode="N" horiz-adv-x="971" d="M28 1388q0 -56 12 -92q-4 -12 0 -20l-4 -24v-52q0 -24 -2 -46t-10 -42l8 -12l-4 -16v-44q-8 -44 -12 -104l4 -12q-4 -8 -4 -28q4 -48 0 -80v-120q0 -16 -4 -40q0 -20 -4 -32l4 -116q0 -36 -4 -64l4 -24v-68q-4 -44 -4 -72l-4 -44v-100q0 -20 -4 -32q8 -32 0 -60 q4 -32 28 -44l8 32l-4 16v36q4 52 -4 92q0 8 4 28q-4 36 0 64v16l8 56l-4 20v72l4 16l-4 12v100q-8 40 0 92l4 20v264q4 20 0 32l4 12l8 80q-4 8 0 28q0 52 8 84l-4 20q4 24 0 52l4 12l4 28l-4 32q-8 48 -8 80l56 -100l4 -16l12 -16l12 -20q12 -32 24 -48q4 -12 8 -16 l44 -56l12 -24l12 -20l16 -24q20 -36 40 -60q20 -40 24 -52q28 -52 40 -68l4 -16l12 -20l52 -92q20 -32 28 -60q16 -24 24 -44l8 -8l12 -28q28 -28 40 -52q8 -12 20 -36q12 -20 16 -32l28 -44l4 -8q24 -32 32 -60l8 -8l120 -204l4 -12l12 -20q12 -16 16 -32l28 -72 q8 -8 20 -8l12 20l-8 12l4 16l4 84q-4 32 4 60q-4 12 0 16l4 20l-4 8v64q-4 40 0 68l-8 68q0 32 -4 56l4 16l-4 28q4 60 -4 100l-4 12q12 48 8 80l4 36v92l4 12q-4 20 0 32l-4 8v88l8 44l4 24v20q4 12 0 40l4 44v100l-4 44l4 12q-8 60 4 108l-12 12q-16 -8 -20 -24v-60l4 -8 q-8 -40 0 -72v-100q-4 -24 -4 -40v-32l4 -8l-4 -32q-4 -48 -12 -80q0 -48 4 -76v-12l-8 -80l4 -32q0 -60 -8 -100l8 -320l4 -12v-68q-4 -32 4 -60l-8 -48v-12q-4 -20 0 -32l-4 -44l-12 28l-12 12q-28 40 -40 72l-12 8l-28 56l-20 40q-36 48 -48 88l-48 68l-24 48l-24 40 q-28 52 -56 84q-20 56 -44 88l-16 24l-8 20l-8 12l-36 72l-8 12q-12 20 -24 28l-4 8l-8 28l-32 64l-8 12q-24 28 -36 52l-8 8l-36 64l-12 8q-20 36 -36 52q-20 48 -32 64l-20 44q-4 12 -8 16q-8 24 -24 40q-12 36 -28 60q0 20 -4 32l-20 12q-24 -44 -12 -88z" />
<glyph unicode="O" horiz-adv-x="780" d="M260 1408l-48 -20q-16 -16 -24 -32l-20 -28l-28 -36q-8 -28 -24 -48l-20 -48q-8 -32 -24 -56l-4 -20q-4 -24 -12 -40l-24 -80l4 -12q-8 -24 -8 -48l-8 -24v-12l-4 -44l-4 -44l-4 -12l4 -8l-4 -8q0 -36 -4 -64v-64l-4 -12l4 -16q-4 -76 8 -128v-76l4 -16l4 -44q0 -8 2 -18 t6 -14q0 -24 4 -40l12 -52l20 -60q8 -40 20 -68l20 -32q28 -40 48 -60q40 -24 84 -20l20 -4q24 8 48 8h32q12 0 16 4q60 8 100 24q16 16 24 32q44 36 68 80l4 16l12 12l8 20l20 76l4 16l12 28l16 40l4 20l12 44l4 16l40 176l-4 12q12 56 0 104q16 112 -16 200v32l-8 12 q0 52 -12 88l-4 24q-8 8 -8 20q-12 56 -24 88l-32 48l-8 32l-4 8l-20 64l-16 24q-40 56 -87 67q-9 14 -50 24q-67 -3 -127 -51zM400 1415q36 -15 68 -31l8 -8q16 -28 40 -48q0 -12 4 -16l8 -32q16 -32 20 -60q24 -24 36 -52l32 -120l8 -12v-16q4 -40 12 -68v-16l8 -28 l12 -164q0 -12 -4 -16l4 -12v-80q-8 -32 -12 -76l-16 -48l-4 -24l-4 -24q-12 -36 -16 -64q-16 -32 -20 -56l-20 -52q-8 -60 -28 -100q-12 -20 -24 -28q-16 -40 -48 -64l-28 -36l-28 -12h-12q-48 -16 -68 -16l-12 4l-12 -4l-96 -4q-56 36 -84 76q-12 40 -28 60q-8 44 -24 76 v12q-8 28 -8 52l-16 28l4 20l-8 24q0 24 -4 28l4 12q-8 24 -8 44v56l-4 8v24q-8 60 0 100q-16 392 176 688l8 4l16 20q64 36 84 52l44 16z" />
<glyph unicode="P" horiz-adv-x="640" d="M20 1467l-12 -12l-4 -24q8 -36 4 -64l4 -28l-4 -24l-4 -28l4 -32l-8 -28l4 -32l-4 -56l4 -28l4 -128l-4 -16l4 -20q-4 -44 -4 -72l4 -20v-16l4 -44l-4 -44v-40l-4 -16l4 -32l8 -184q-4 -16 -4 -44l4 -52v-16q-4 -32 0 -52l8 -72v-16l-4 -44v-88q-8 -44 -8 -80l12 -20 q20 20 20 44l4 88q-4 44 0 76l-4 64l-4 12l-4 76l4 20l-8 72l4 28v88l32 12q36 8 64 8q32 8 56 8l16 8l76 20q20 8 32 16q36 8 56 16l12 8q40 12 72 36l4 8q56 64 80 132q0 28 4 32q0 12 -4 16v44l4 12l4 44l-4 116l-28 88q-4 24 -12 40q4 20 -4 36l-4 8q-12 16 -16 32 q-12 40 -28 64l-36 28q-24 20 -68 48h-16q-32 8 -52 20h-60l-12 4l-24 4q-48 -8 -84 0q-40 -16 -76 -4zM436 1339l32 -88l8 -44l4 -8l8 -24q4 -36 20 -64l8 -100q16 -292 -196 -340q-144 -72 -284 -64v16q-16 76 0 144l-4 36q4 32 -8 60l4 16l4 100q4 52 -8 92v92l4 16l-4 8 l4 64l4 8q-4 32 0 88q-4 48 4 80l16 4l24 4l52 8q184 8 308 -104z" />
<glyph unicode="Q" horiz-adv-x="800" d="M348 1396q-148 -8 -240 -104l-8 -20l-36 -64l-8 -36l-8 -16v-12l-28 -88v-32q-8 -32 -8 -56l-4 -12v-20q-4 -32 -4 -52q-8 -36 -4 -64q12 -48 4 -92l4 -24q8 -24 8 -44l8 -68q4 -12 8 -16l4 -20q0 -20 4 -32l8 -28q0 -32 12 -56v-16l12 -44v-44l28 -92l20 -24 q52 -140 152 -224q144 -28 240 72l24 -28l12 -8l24 -24q40 -40 76 -60l20 8l-4 16h-12l-48 44q-40 32 -56 56l-8 8q0 12 4 16q16 16 24 32q32 40 48 68l12 36q4 40 16 68v16q0 8 8 28l4 52l8 24v16l12 52l8 48l-4 20l4 44q12 56 8 96q8 20 4 28l4 44q4 8 0 28l-4 116 q-4 8 -6 16t-6 28q-8 52 -28 88v12l-36 100l-12 16l-36 60q-20 20 -28 32q-44 72 -84 108l-29 13q-27 6 -50 14zM444 1344q300 -340 216 -740l4 -12l-4 -8q0 -36 -4 -64l-4 -20q-8 -32 -8 -56l-4 -16q-8 -32 -8 -56l-4 -16l-4 -16l-4 -16l-24 -100l-60 -88q-24 -36 -36 4 q-12 28 -40 32q-8 -44 32 -80q-80 -76 -180 -76q-68 32 -104 92q-4 8 -8 28q-28 32 -36 60q-20 48 -44 76q4 12 0 16l-20 64q0 40 -12 68l-8 64l-4 12q-4 36 -12 56v16l-8 12q-8 44 -8 72l-8 40l-4 104l-4 20l-4 28v56l12 56l4 72l4 24l16 56q16 36 16 68q12 20 16 24l4 12 l32 64q28 24 48 36l44 32q8 0 18 2t14 6l20 8q52 0 84 12q48 -4 84 -28z" />
<glyph unicode="R" horiz-adv-x="701" d="M132 1444l-12 4q-20 0 -32 -4q-48 8 -80 0q0 -16 8 -24l-4 -28v-28l4 -8q-8 -44 -8 -72l4 -8q-4 -32 8 -60l-4 -24v-56q-4 -48 -4 -80v-60l4 -20v-100l-4 -8v-108q0 -12 4 -16v-40l4 -12v-48q-16 -8 -20 -20q8 -24 20 -36v-24q-4 -12 0 -24l4 -100l4 -16v-52q-4 -8 0 -16 l-4 -20q4 -24 4 -40v-32q0 -76 -4 -124l4 -12v-60q-8 -36 4 -68q20 4 28 16l-4 48v108l-4 8l4 80l-4 28l-4 96q0 8 4 28q0 32 -4 56l-4 120q8 40 100 48l8 -20l8 -8q20 -44 44 -68l24 -36l12 -16l20 -32l120 -260l8 -8l12 -20q4 -24 16 -40l4 -8l16 -20l36 -64h28q8 12 8 28 l-8 8q-16 16 -20 28l-32 40l-12 20q-4 12 -8 16l-20 32l-40 84l-4 12l-12 32l-12 28q-16 44 -32 68t-24 44l-12 8l-4 16l-16 16q-8 24 -24 40q-36 44 -48 84q192 60 300 204q168 144 132 344q-28 148 -124 240h-12q-36 16 -64 20l-12 4q-32 0 -56 8l-12 -4l-12 4h-24l-12 4 h-96q-32 -8 -56 -20zM296 1428q12 4 36 4l140 -32l28 -28l16 -24l8 -8l16 -24l8 -24q24 -36 32 -68q44 -236 -136 -372q-108 -140 -260 -176q-28 -12 -76 -16q-36 -12 -64 -8v36q-4 16 -4 48l-4 32v100l4 24v48q4 8 4 28l-4 32l-4 64l-4 8l4 16q-4 52 8 92v24l-4 12 q-8 28 -8 48q8 80 0 136l12 16l88 4l64 16q60 0 100 -8z" />
<glyph unicode="S" horiz-adv-x="701" d="M12 1037q24 -92 88 -148h16q36 -16 68 -20l28 -12l44 -8l8 -4l108 -32q308 -228 132 -620l-20 -24q-56 -172 -216 -152q-188 8 -248 168l-20 -16q12 -48 36 -80l12 -12q24 -12 40 -24q40 -20 64 -48q284 -76 356 144q52 72 60 148l8 12v16l8 44q4 8 8 28v52q8 36 8 64 l-4 8q-40 160 -136 272q-44 24 -68 44l-20 8q-32 12 -56 16l-16 4q-40 16 -68 20l-132 44q-52 64 -60 136q-8 328 292 332q100 20 156 -56h12q12 100 -172 88h-16q-336 -32 -300 -392z" />
<glyph unicode="T" horiz-adv-x="950" d="M680 1455q-44 0 -72 -12h-104q-24 8 -72 0l-8 4q-24 0 -68 4l-12 -4l-12 4l-12 -4l-16 4q-68 -12 -116 0q-92 -24 -172 4q-12 -4 -16 -12q4 -20 16 -28l36 -4h24l8 4q48 -4 80 4h84q32 4 60 0v-56l4 -24q12 -32 12 -60v-76l4 -16v-80l8 -40l4 -184l4 -8l4 -28v-28 q8 -16 4 -32l4 -28q4 -24 4 -56t4 -52l-4 -12v-96l4 -12l-4 -12l4 -8q0 -20 4 -32l-4 -8v-100q-4 -32 -4 -80q0 -36 -4 -64q0 -44 -12 -76q-12 -88 4 -152l20 -4l12 20l-8 12q4 48 -4 84v16q16 48 16 82t4 58q-4 20 0 40q0 60 -4 80l4 12l4 52l-4 36v104q-8 68 0 116l-4 28 l-4 28l4 24l-12 48l-4 28l-4 204q0 24 -8 40v84l-4 16v24q0 80 -16 136q0 32 12 56q36 0 56 -4h68q48 0 84 -8q16 4 52 8h20l12 4q96 0 152 8q28 -4 44 -12q12 20 0 32q-8 4 -28 8h-32q-48 -8 -84 0z" />
<glyph unicode="U" horiz-adv-x="835" d="M19 1446q13 -105 -12 -184l-4 -220l6 -29l3 -20l-3 -40l2 -24l-1 -20l1 -44l-1 -12l2 -28l6 -29l3 -72q-4 -8 -2 -28q-4 -56 -1 -76q0 -52 -5 -76l3 -12l-3 -96q-2 -32 0 -56l2 -33l-3 -43q-1 -16 1 -41l2 -24l6 -32q6 -25 5 -49l7 -12q2 -21 16 -50q6 -40 24 -65 q176 -69 336 -8q52 -7 94 22l22 26l9 16l14 23q13 23 19 42l8 8l1 12q9 19 18 31l33 62v12l31 90l2 28l5 15q1 16 10 36q3 36 13 63q1 20 -2 32l10 84l5 15q2 32 8 56l-3 20q11 35 13 63l-1 45l8 119q17 71 16 119l-2 29l3 36l-3 16l3 40l-3 12l-1 44l1 12l-8 13l5 11l-3 13 l2 31q-5 37 1 65l-12 8q-29 -14 -27 -42q10 -33 13 -57l-3 -40l2 -28l2 -24q6 -37 4 -65l-1 -68l2 -20l-5 -20l-2 -27l-5 -20q-3 -44 0 -56q-11 -36 -13 -64l4 -8q-6 -31 0 -60l-2 -20q-10 -31 -11 -51l1 -32l-1 -24l-5 -12l-6 -24q-2 -32 -7 -51v-56l-5 -12q-3 -44 -17 -75 l-2 -24q-10 -23 -11 -47l-36 -102l-27 -50q-14 -19 -19 -35q-9 -24 -14 -27l-32 -62l-26 -22l-16 -7l-45 -9l-12 1l-45 -9q-20 -11 -32 -10l-29 -10q-117 -8 -202 42l-14 25l-2 24l-14 29l-3 13l-5 44q-10 37 -14 93l5 64l-3 20l-3 21q6 75 1 124l4 56l-2 32l2 24l-3 12 l7 100q1 12 -3 16l-1 44q-12 65 -4 113q-6 32 -3 68q0 8 -6 29l2 32q-9 44 0 120l-3 8l2 96q15 31 17 59q-9 57 3 100q10 32 -22 30z" />
<glyph unicode="V" horiz-adv-x="950" d="M856 1427l3 -16l-18 -51l-6 -28q-2 -44 -15 -71l-3 -48l-29 -91q-6 -51 -28 -86q-16 -72 -15 -120v-12l-6 -23l-5 -24q-13 -28 -18 -47.5t-6 -39.5q-3 -48 -9 -80l-9 -23q-13 -32 -26 -51l-5 -12q-6 -39 -15 -63q-10 -36 -12 -68l-5 -15l-51 -142q-8 -75 -43 -130 q-5 -12 -10 -31q1 -56 -25 -103q-27 29 -44 90q1 8 -2 28l-10 41l1 12q-10 37 -13 65q-10 36 -25 65l1 20l-10 21l-14 41q-5 56 -20 89q-6 36 -21 61l-2 20l-10 45l-3 16l-8 12l-6 29q-9 56 -20 89l-3 20l-13 45q-2 36 -17 61q-3 28 -13 60l-13 49l-3 16l-11 29 q-9 52 -23 89l-7 17l-19 37l-29 53l-3 12l-26 50q-21 57 -39 90l-6 28l1 24l-24 6l-5 -28q2 -20 13 -45q11 -32 21 -53l8 -8q17 -57 39 -91q22 -53 44 -86q18 -41 20 -73q7 -21 14 -33q5 -60 27 -102l10 -40l-1 -12q14 -37 17 -69l3 -8l17 -65l3 -16l10 -37l3 -16l47 -183 l10 -36l3 -17l3 -16l3 -16q11 -25 14 -41l11 -32l3 -9l30 -113q0 -8 3 -28q5 -57 15 -93q29 -62 39 -107l15 -12q29 18 42 45q19 44 26 107l5 12q26 43 32 74q6 56 25 95v12l38 110q6 32 15 56q12 87 52 149l5 28l5 24l6 24l-3 28l10 27l5 16l15 67q10 32 7 60l1 12 q2 36 11 63q1 16 10 28l14 39l5 20l5 24l5 20l5 27q14 36 20 63l6 44l6 28l5 20l5 23l25 95q-8 13 -23 13z" />
<glyph unicode="W" horiz-adv-x="1370" d="M0 1452q8 -12 16 -36q20 -44 24 -72l8 -20l12 -44q4 -40 16 -68l4 -16l4 -16l8 -20q8 -48 24 -80l4 -20l4 -20l8 -92l12 -36q0 -28 8 -52l8 -44q4 -24 12 -40v-12l8 -24q0 -12 4 -16v-12l8 -24l12 -64v-12l4 -32l16 -80q4 -28 6 -38l6 -30q8 -28 8 -44q12 -32 16 -56 l4 -12q8 -48 20 -76l-4 -12l8 -12v-12l4 -32q12 -36 16 -64l4 -8q8 -64 32 -104q28 12 44 36v12l12 32l8 48l4 24q20 36 28 72l12 28q4 24 16 36q4 24 16 40l12 36v12l8 32v24q12 32 12 60l24 72q4 12 8 16v12l8 12q0 16 8 40q4 36 12 60l12 64l4 16q-4 48 8 88q0 44 12 76 q16 -44 20 -76q12 -20 12 -32q20 -32 40 -92q4 -32 12 -56v-12q12 -28 24 -72l4 -16q44 -140 52 -188l12 -28l32 -132l16 -40q8 -32 16 -48v-12q20 -56 20 -100q12 -12 24 -16q20 20 28 44v20q0 12 4 32q16 52 16 84q8 24 4 44l4 12l4 28l4 24l8 24l48 100q12 24 8 28 q20 36 28 64l28 92q20 44 28 80l12 28v16l8 20q0 16 4 40q12 32 16 88l8 12q12 60 32 100l12 40l4 20l12 84v16l8 48l-4 8v24l4 8l8 64q36 76 36 144q-24 8 -40 -4q8 -84 -28 -148q-4 -32 -4 -56v-52q-12 -64 -12 -100l-12 -28q-4 -20 -4 -40l-36 -100q-8 -52 -20 -88 q-4 -36 -12 -64v-16l-12 -32l-4 -16l-12 -28l-4 -24q-12 -28 -16 -48q-12 -28 -16 -48q-20 -40 -28 -68q-4 -20 -8 -30t-8 -14l-52 -108l-16 -64q4 -92 -28 -164l-16 40l-4 20l-8 20l-8 28q-24 56 -28 96l-4 24q-4 20 -12 32q-8 36 -20 64l-12 48l-20 64l-4 20l-16 44l-4 20 l-28 88q-4 32 -12 52l-4 12l-12 28l-28 60v12l-20 80q-16 16 -28 20l-20 -24l-8 -44l-4 -20l-12 -88v-52l-4 -8l-4 -28l-4 -20l-12 -68l-40 -120l-4 -16l-8 -28l-16 -100q-12 -24 -16 -44l-28 -72q-12 -24 -16 -40q-40 -76 -40 -144l-12 -28l-8 20l-4 28l-8 20v12 q-16 36 -18 62t-6 42l-32 116v12l-12 28q-4 48 -12 80l-12 44q0 28 -8 52l-8 56l-4 16l-4 16v16q-12 60 -24 104l-16 52l-4 32l-4 8q-4 44 -20 72l4 28l-12 108q-16 32 -20 60l-4 8q-36 100 -36 136l-8 24q-4 32 -16 56q-24 60 -24 112l-24 12q-12 -16 -16 -32z" />
<glyph unicode="X" horiz-adv-x="1040" d="M840 1460q0 -8 -8 -24l-12 -16q-32 -44 -48 -76l-20 -56l-96 -176q0 -8 -12 -28l-8 -32l-24 -60l-16 -24l-16 -56l-28 -40q-20 -84 -64 -144q-12 0 -16 4v16l-44 60l-4 12l-48 72l-16 40q-24 36 -36 64l-28 48l-48 56q-16 24 -32 40l-16 36q-4 12 -8 16q-16 36 -32 60 l-8 20l-72 112l-8 40l-28 12l-8 -16q28 -48 36 -84l12 -16l16 -16q12 -24 28 -40q12 -28 24 -44l16 -24l-4 -8q24 -36 32 -64q4 -8 24 -28q12 -24 32 -40q16 -24 28 -36q4 -8 16 -28q24 -36 36 -64l20 -40q4 -12 8 -16l112 -176l-36 -48l-4 -8q-12 -20 -16 -36l-8 -8 l-16 -28l-8 -8q-12 -20 -16 -32l-32 -60q-12 -20 -24 -32l-32 -36l-16 -20l-88 -120q-12 -32 -32 -52l-40 -88q-88 -56 -104 -116h24l4 8l44 52q32 16 48 32l8 12q16 48 36 76q16 36 36 56l36 52q16 16 24 28l20 32l48 56q16 24 32 40l28 64q20 36 40 52q24 64 60 104 l76 -84q8 -24 24 -40q32 -80 88 -136q24 -44 32 -76l20 -28l24 -40q12 -40 36 -64l4 -8l16 -24l8 -8q12 -16 24 -24q4 -12 8 -16l12 -16l44 -68l28 -8q8 16 8 28q-28 28 -52 68l-20 24l-16 20q-36 40 -56 72l-4 8q-12 20 -16 36q-28 32 -36 60l-16 32q-24 52 -60 84l-4 12 l-12 12l-20 32q-12 16 -12 32q-4 8 -20 28l-12 20q-60 80 -80 100q20 56 48 88q20 44 28 76l44 92l12 36q20 32 26 62t22 54l4 12q16 16 24 32l52 108l8 12l32 80l16 20q24 40 48 64q4 20 -8 36h-8z" />
<glyph unicode="Y" horiz-adv-x="830" d="M708 1456q-32 -44 -40 -84q-12 -12 -16 -20l-4 -16l-36 -64q-24 -56 -44 -88l-4 -16l-12 -20l-44 -120l-12 -20l-16 -24q-44 -52 -64 -104q-12 -4 -24 0q-44 46 -80 76l-4 12q-20 28 -28 44l-84 152l-16 12l-12 16l-40 52l-44 104q-40 44 -52 92l-20 4q-12 -16 -8 -32 l8 -8q20 -28 32 -52q32 -36 40 -72l20 -36l4 -8l16 -20l40 -56l12 -16l16 -24l8 -8q24 -56 48 -88q28 -68 72 -102q44 -48 71 -85l17 -181l-4 -24q-4 -44 0 -72v-16q-12 -72 -8 -168l-4 -28l4 -140q4 -24 4 -40v-56l-4 -8q8 -48 0 -92q12 -12 24 -12l12 12l-8 28q4 24 4 40 q0 68 -4 88v56q-8 56 -4 116v80q4 20 0 32q4 16 4 28t4 16q8 52 0 92v40l8 24v40l-4 28l-4 88q16 36 16 64q8 24 32 60q36 44 52 76l12 24q4 24 16 44l4 16l12 32l24 56q12 24 24 40l4 16l12 24l12 12l28 68l8 12q20 48 44 76q0 16 -16 28h-4z" />
<glyph unicode="Z" horiz-adv-x="1090" d="M757 1448l-32 -3q-96 8 -173 -18q-28 5 -48 2q-28 1 -56 -6q-28 1 -52 -6l-32 1l-8 4l-48 6l-24 9q-44 1 -72 -10l-64 3q-31 13 -56 6q7 -29 35 -34l16 4q60 -6 104 0q12 0 32 3l20 -5q72 -14 120 -12l12 4l40 6l96 1l61 18l12 -5l12 4l152 -1q32 -1 48 -10l-8 -4 q-13 -31 -30 -55l-9 -15l-48 -123q-9 -32 -26 -51l-8 -16q-14 -31 -26 -51l-9 -11l-13 -24l-56 -114q-8 -24 -14.5 -31.5t-15.5 -27.5l-12 -16q-13 -31 -26 -51l-34 -55q-17 -35 -34 -55l-4 -11l-26 -40q-13 -31 -29 -47l-64 -109l-13 -12q-8 -24 -25 -39l-4 -8l-17 -19 l-21 -32l-8 -7q-17 -32 -38 -47l-37 -39q-39 -83 -97 -129q-13 -19 -17 -31l-13 -16l-50 -82l-25 -11l7 -24l28 -1l12 -5l64 -6q52 6 88 1l40 7l16 -5l56 -2l12 4l28 -1q49 14 88 1l28 3l68 -3q33 7 84 1l9 4q35 -5 60 2l16 3l16 -4l16 -1q24 0 40 3q32 3 56 -6 q72 10 124 -4q28 3 44 10q5 24 -19 29l-28 -7l-12 4l-16 -3q-24 5 -40 5l-8 -4l-92 8l-12 -4l-28 -3q-60 6 -100 0l-108 -1l-13 -3l-7 4q-41 -7 -73 -1l-68 2l-44 -11q-76 7 -104 4l-12 5q-84 -18 -156 1q1 28 30 63l39 59q33 35 45 42l4 12l13 16q17 39 38 62l13 16l41 42 l9 16l42 55l8 7l13 28l46 62l13 12q12 23 25 39l5 16l12 23q26 36 39 63l12 16l47 78l4 16q17 23 26 43l8 12l9 12l13 23q13 32 34 59v12l9 20q21 31 30 59l21 43l13 12q26 55 47 86q4 12 8 16q5 12 9 15l1 16l12 24l9 28q9 11 18 39q17 23 21 47q30 55 75 82q-11 28 -39 29 q-72 -9 -120 -4z" />
<glyph unicode="[" horiz-adv-x="620" d="M12 1511q0 -28 8 -60q-4 -12 0 -16v-140l4 -16q-4 -12 0 -40l-4 -20v-168l-4 -28l-4 -28v-48l-4 -24l4 -28v-56q4 -36 0 -64v-176l-4 -20v-44l4 -8q-4 -24 -8 -68v-56l4 -16v-88l-4 -20l8 -40l4 -116l-4 -44q-12 -52 -8 -88q0 -20 -4 -32l4 -28l8 -8l36 -28q36 12 64 8 l128 -4l8 4h64q24 4 60 8q32 8 52 -4l24 16q0 24 -16 32l-12 -4l-24 -4l-28 -4l-24 -4q-28 -8 -52 -4q-72 -12 -120 0q-68 -8 -124 8l-12 24q12 36 4 64q12 52 8 136l-4 16v28l-4 8l-4 100l4 8l-4 164l4 8v72l4 24l-4 28l4 24v92l4 28v88q-4 56 0 92q-8 40 0 76l4 76l-4 24 v88l4 44l-4 32l4 28q-4 24 -4 60l-4 28q4 44 0 72q28 12 48 12l116 -4q92 20 168 8q48 4 88 -8q20 4 36 -4q20 4 20 24l-12 12h-64l-12 4l-112 4l-28 4l-28 -4l-24 -8h-52l-8 -4q-52 8 -92 0l-24 4q-12 20 -36 24q-12 -16 -16 -28z" />
<glyph unicode="\" horiz-adv-x="590" d="M0 1416l12 -20l16 -52q16 -28 24 -52l12 -40q4 -32 12 -52l8 -12l16 -56q12 -20 16 -32l12 -40l4 -16l8 -32l4 -8q12 -28 16 -52l12 -20l8 -40q16 -32 16 -56q12 -28 16 -48l12 -32q20 -44 28 -80q12 -28 16 -52l36 -120l4 -16l44 -128l4 -20l16 -40l4 -20l12 -36 q4 -32 16 -72l4 -20l8 -12q4 -28 16 -64l16 -60q12 -16 28 -16l12 32l-20 28l-4 12q-8 48 -24 80l-4 20l-8 20q-16 80 -28 108l-20 60l-12 28q0 8 -12 28l-12 52l-40 140l-4 16l-12 36l-4 16l-36 100l-8 16l-16 60l-4 8l-20 72l-12 24l-4 20q-32 84 -36 112l-48 128 q-4 32 -16 52l-4 20l-8 32q-36 68 -40 124l-28 4z" />
<glyph unicode="]" horiz-adv-x="610" d="M508 -61q0 28 -8 60q4 12 0 16v140l-4 16q4 12 0 40l4 20v168l4 28l4 28v48l4 24l-4 28v56q-4 36 0 64v176l4 20v44l-4 8q4 24 8 68v56l-4 16v88l4 20l-8 40l-4 116l4 44q12 52 8 88q0 20 4 32l-4 28l-8 8l-36 28q-36 -12 -64 -8l-128 4l-8 -4h-64q-24 -4 -60 -8 q-32 -8 -52 4l-24 -16q0 -24 16 -32l12 4l24 4l28 4l24 4q28 8 52 4q72 12 120 0q68 8 124 -8l12 -24q-12 -36 -4 -64q-12 -52 -8 -136l4 -16v-28l4 -8l4 -100l-4 -8l4 -164l-4 -8v-72l-4 -24l4 -28l-4 -24v-92l-4 -28v-88q4 -56 0 -92q8 -40 0 -76l-4 -76l4 -24v-88l-4 -44 l4 -32l-4 -28q4 -24 4 -60l4 -28q-4 -44 0 -72q-28 -12 -48 -12l-116 4q-92 -20 -168 -8q-48 -4 -88 8q-20 -4 -36 4q-20 -4 -20 -24l12 -12h64l12 -4l112 -4l28 -4l28 4l24 8h52l8 4q52 -8 92 0l24 -4q12 -20 36 -24q12 16 16 28z" />
<glyph unicode="^" horiz-adv-x="640" d="M218 1401l-4 -12l-20 -32l-8 -8q-8 -40 -28 -64l-12 -24q-12 -28 -16 -32l-20 -36l-84 -160q-20 -28 -28 -50t0 -38l24 8l8 4q8 36 20 60l20 40q12 20 16 32l28 48q20 32 28 56l20 32q12 32 24 48l16 28q16 48 40 76l16 -20q12 -32 28 -48q4 -12 8 -16q4 -12 8 -16l8 -16 l28 -36l8 -16l56 -88l8 -16q8 -8 20 -28l12 -20l4 -16q24 -32 38 -58t38 -30q12 16 8 32q-16 16 -24 28l-16 20l-24 48q-24 32 -32 56l-20 24q-16 20 -20 32l-20 28l-12 20l-60 96l-4 12l-24 44q4 24 -4 40h-28q-12 -20 -24 -32z" />
<glyph unicode="_" horiz-adv-x="980" d="M988 6h-36l-12 -4l-132 -8l-32 4l-24 -4l-92 -4l-12 4l-8 -4h-60l-28 -4l-24 4q-32 0 -56 -4l-96 -4q-32 0 -56 -4l-24 4l-20 4h-20q-32 0 -56 4h-16l-24 4q-24 -4 -40 0q-64 -4 -108 4l-12 -8q4 -20 16 -32q28 4 52 0l16 4l196 -8l12 -4l16 4l28 -4q28 0 48 4l228 4 l12 4h96q24 4 56 8l20 -4h24l12 4h24q100 8 164 -4q20 28 -8 44z" />
<glyph unicode="`" horiz-adv-x="260" d="M0 1447l48 -96l12 -12q28 -48 56 -76q20 -44 44 -68q4 28 0 48l-12 16l-36 52l-44 64l-8 8l-40 84l-12 4q-8 -12 -8 -24z" />
<glyph unicode="a" horiz-adv-x="780" d="M114 867q24 -16 44 -16l-8 16q80 152 232 92l68 -16l12 -16q28 -24 40 -44l16 -48v-12q16 -48 16 -84l28 -88v-12q8 -20 4 -40l4 -8l8 -32q-4 -28 0 -48q-224 68 -400 -56q-224 -104 -180 -396q12 -40 32 -64l68 4q16 -4 36 0l32 4h24l12 4h84l12 8q24 8 40 8l52 20 q44 24 72 32l88 52q20 12 32 16l44 24l12 -12l4 -28v-40q4 -56 12 -88q16 0 28 8v44l-4 24v20l-8 16l4 8q-12 40 -8 72q-12 20 -16 48l-8 44v12l-20 80l-12 124q-12 48 -8 80l-4 24q-8 64 -24 100q-20 52 -20 92l-4 24l-24 80q-28 32 -40 56q-100 48 -192 48 q-140 -20 -180 -136zM574 467l8 -16q16 -56 16 -96v-16l24 -88l4 -52q-24 -8 -36 -8l-16 -20l-120 -72l-16 -4q-48 -24 -80 -32l-44 -16q-32 -4 -52 -12h-68l-12 -4q-8 4 -16 0h-16q-60 -8 -100 -4q-40 80 -28 160q28 192 192 260q88 60 184 56l20 8q92 0 156 -44z" />
<glyph unicode="b" horiz-adv-x="745" d="M32 1407l4 -12q-4 -16 -4 -40l-4 -100q0 -40 -8 -68l4 -24q-8 -36 -12 -92l4 -12l-4 -12l-4 -56l4 -28q-4 -44 0 -72l-4 -24l4 -24q-8 -28 -8 -52l4 -56v-68l-4 -32v-24l-4 -8q0 -20 4 -32q-4 -32 0 -60v-72q0 -36 -4 -64q4 -24 4 -52l4 -8q-8 -56 0 -92q4 -52 4 -68 l4 -152q20 0 32 4q12 44 64 48l36 -12l28 -4h28l28 -8l8 4l64 -4l12 -4q60 -24 108 -28l12 -4l16 12q32 16 48 40l8 8l44 28q12 20 24 24l12 24l24 88q0 24 8 52l4 96l12 44l-4 20l4 28l4 144l4 12v68q4 24 0 28q0 60 -8 100q-44 128 -140 188q-116 4 -200 -56 q-44 -8 -76 -36q-112 -36 -188 -112l-4 20l4 220l4 20v40q8 28 4 52l4 12q0 32 4 56v12q4 24 4 40l4 100q0 44 12 76q4 24 -20 24q-16 -32 -16 -60zM592 855q4 -36 20 -60l4 -180q-8 -36 -4 -68v-12l-8 -48v-44q0 -36 -4 -64q-4 -44 -12 -76q-4 -96 -36 -168l-32 -36 q-40 -24 -48 -36l-24 -20l-4 -8l-24 -4l-32 4l-44 12q-8 0 -18 2t-14 6h-36l-8 4q-24 0 -68 8q-44 0 -76 12q-24 0 -46 -2t-38 -6l4 8q-8 32 -4 60l4 8l-8 32l-4 156l-4 12l-4 256l4 12v24l4 12v104l100 84l48 20l32 12l60 36l44 16q68 36 116 48q84 12 160 -116z" />
<glyph unicode="c" horiz-adv-x="700" d="M6 515q-28 -96 0 -184q0 -60 20 -108q52 -136 148 -216l44 -8l12 4q48 -8 80 -4q180 -20 280 112q4 24 -20 28l-16 -12q-24 -40 -60 -60q-16 -20 -32 -32l-12 4l-52 -12q-36 4 -64 -4l-16 8q-40 -4 -68 0l-64 8q-164 160 -168 408q4 48 12 80l4 16v32l8 44l-4 24 q12 32 12 60q136 296 424 212q36 -24 56 -52q48 -4 12 44q-100 64 -208 60q-360 -88 -328 -452z" />
<glyph unicode="d" horiz-adv-x="800" d="M680 1495q-4 -16 -6 -30t2 -26l-4 -24q4 -20 0 -32l4 -12l4 -80l-4 -28l-16 -132l4 -16v-20q-4 -56 4 -92q-4 -12 -4 -32l-4 -32v-32l-4 -12q0 -20 -4 -32q4 -24 0 -44q-48 108 -140 156q-108 96 -228 -20q-184 -136 -212 -336l-8 -12l-24 -76l4 -8q-72 -212 -24 -400 q60 -80 136 -116h52l16 4q60 -4 140 8l12 4q24 4 40 4l100 32l16 8q28 20 52 32l64 36l12 -12q-12 -112 36 -128l8 8l-12 36q8 56 -4 104l-4 12q4 52 -8 92l-4 28v24q4 72 -8 120v56q8 36 0 64l4 28v92l4 12l8 80l-4 12l4 76l4 28l-4 28l4 8l4 84q4 8 0 16l-4 56q8 40 0 72 l8 56l4 36v24l8 48l-4 8q-8 64 -2 110t-14 82h-4zM632 783l20 -12v-60l-4 -8l-4 -32q-4 -36 -4 -64l-4 -8q4 -28 0 -48l4 -56q-4 -32 -4 -56l4 -44l4 -84l4 -16q0 -16 -4 -48l8 -8q-4 -32 4 -60l-12 -12q-24 -12 -28 -16l-12 -4l-128 -72q-40 -4 -68 -16q-52 -4 -88 -20 l-20 -4q-72 16 -128 0q-80 40 -120 104l-20 64q4 96 0 128q4 24 8 28v32l16 52q0 24 8 44v24l28 96q12 24 16 44q16 88 60 148l16 16q8 12 20 24t24 32l16 12q32 36 60 52l32 28l76 28q164 -60 220 -208z" />
<glyph unicode="e" horiz-adv-x="780" d="M304 973l-24 -4l-84 -40q-12 -16 -28 -24l-48 -52l-28 -36l-12 -36l-8 -12l-32 -96q-8 -64 -20 -104v-28l-4 -12q-8 -48 -8 -80l-4 -24l-4 -44v-100l4 -8l4 -64l4 -8q12 -52 28 -84q16 -20 20 -40q120 -92 260 -84q208 -20 308 196q-8 20 -28 20q-108 -244 -352 -184 q-232 36 -220 324v28l4 12q4 48 12 76h12l64 12l28 8l16 4q56 4 88 12l24 4l44 12q52 16 84 20q28 -4 52 4l12 4q24 0 28 4h12l64 12l52 4l44 20v16l-8 40l4 12l5 100l7 20q-8 20 -8 36q-124 196 -352 168zM640 797l3 -26l-7 -30q-8 -48 0 -92q-4 -44 -56 -64q-24 4 -28 0 l-48 -4q-28 -12 -52 -12l-64 -4l-28 -12l-28 -4l-20 -8q-32 -4 -52 -12l-44 -4l-12 -8l-12 4l-12 -4l-44 -8l-12 -4q-32 -4 -52 -12q-12 12 -24 8q0 232 140 384q84 60 176 68q188 -16 276 -156z" />
<glyph unicode="f" horiz-adv-x="710" d="M432 1439l-8 4q-40 -20 -92 -40l-4 -8q-32 -32 -48 -56q-20 -40 -20 -72l-24 -76v-16l-12 -68q-4 -84 -4 -112l-8 -4q-44 -4 -72 -12l-28 8l-20 -4l-52 8q-24 0 -40 -4l8 -28l128 -4q48 0 80 8q8 -28 4 -52v-76l4 -24q-4 -44 0 -76q0 -20 4 -32l-4 -28l4 -20v-20l8 -68 q0 -20 4 -32l-4 -44v-28l4 -8l4 -328l4 -8q-8 -32 -4 -60v-12q-4 -28 -4 -48q28 -8 40 12q0 20 -8 32v32l4 8l-4 364q-8 52 -4 88v20l-8 44l-4 16l-4 212q-8 76 8 136l12 4l8 -4q44 4 72 -4l8 4q20 -4 36 0l16 -4l32 8h72l24 -4q56 4 92 -4l8 32q-12 8 -24 8l-24 -4l-12 4 l-8 -4h-180l-16 -4l-12 4h-108l-8 8v16l16 132q8 204 152 252q148 32 208 -104l24 4q-40 144 -204 144z" />
<glyph unicode="g" horiz-adv-x="760" d="M616 955q-368 152 -548 -364q-68 -644 344 -580l12 4l40 24q40 12 64 28l28 4q20 8 40 8q0 -28 4 -48q-4 -32 -12 -52l-4 -32v-40q0 -12 -4 -16v-16q-4 -44 -4 -72l-28 -120l-24 -28q-32 -48 -68 -76l-44 -4h-76q-32 8 -56 4l-32 8l-88 8q-32 32 -52 60l-36 28l-4 8 q-32 20 -44 44q-16 -4 -24 -12q0 -12 4 -16q16 -20 24 -24q32 -20 52 -40l8 -8q24 -40 52 -64l12 -4q24 -8 60 -8q24 -4 40 -4q64 -4 100 -16l12 4l24 -4q44 8 72 4q52 36 64 48q12 20 32 36l4 12l24 44v12q12 36 16 64l12 88v52q4 8 4 28l16 92v32q0 24 -4 40v56l4 44 q4 60 0 84l8 44q0 24 4 40q-8 36 0 68q0 20 4 32v100l-4 20l-4 24v24l-4 16q4 60 -4 100q12 40 10 74t2 62l20 16q-20 40 0 76q-4 16 -16 28h-8zM616 919q0 -32 -4 -56v-32l4 -12q-12 -64 -12 -108l4 -12v-48l4 -12q0 -56 8 -92v-20q0 -32 -8 -76q-4 -92 -4 -124 q-4 -44 -4 -80l-4 -28q-4 -60 -4 -100l-56 -16l-32 -12l-24 -12q-60 -32 -116 -40q-300 -28 -276 440l-4 12l-4 36q68 296 288 424h12l44 4l12 4q32 0 52 4q72 -8 124 -44z" />
<glyph unicode="h" horiz-adv-x="670" d="M0 1471l8 -20q-4 -48 -4 -80l-4 -8q4 -20 4 -34t8 -30l-4 -16l4 -20q4 -44 0 -72q8 -4 8 -8v-108l-4 -20v-40l4 -16q-12 -36 -8 -68v-168q0 -20 -4 -32v-72q12 -32 8 -60q4 -44 -4 -76l4 -8v-48l4 -24v-32q-4 -72 0 -120v-108l-4 -12v-32l4 -16l4 -92l20 -12q12 8 12 24 l-4 28l-4 20q4 40 -4 72q4 16 4 44l4 20l-4 16q0 56 -4 76l4 100l-4 20v56l-4 12q4 8 0 28l4 12q-4 40 0 68l-4 16q0 32 -4 56l4 188l36 16l8 12l96 48l32 12q28 16 52 20q36 20 64 24q4 -4 12 0l28 -12l8 -8l72 -48l36 -64l4 -20l12 -36v-16l8 -28l12 -36v-12l4 -24 q16 -48 16 -84l-4 -16l4 -24q0 -24 -4 -28v-100l-4 -28q4 -116 -4 -152q4 -40 -4 -72v-44q0 -20 4 -32v-28q8 -48 -4 -84q12 -20 32 -16l8 20l-4 40v52l-4 8v72l4 20v56l4 44l4 140l-4 8q4 44 0 72q12 240 -92 428q-76 76 -164 84q-24 -16 -44 -20l-44 -12l-24 -16l-64 -24 q-52 -40 -92 -56v136q0 12 4 16l-4 24q8 48 8 80l-4 16l-4 44l-4 12l-4 80q0 24 -4 40l4 56q-4 40 0 72l-20 12q-12 -12 -12 -28z" />
<glyph unicode="i" horiz-adv-x="235" d="M0 1326q16 -65 52 -3q-15 17 -27 18zM28 972q9 -37 11 -65l3 -17q-2 -24 1 -40l-10 -151q-3 -32 0 -57l-2 -16l8 -12l-5 -16v-44l-2 -40l3 -8l-3 -44l2 -28l2 -28l1 -45l-6 -23v-68q-10 -24 -7 -40v-48l-7 -48l-3 -48q-12 -47 -2 -88q28 -2 37 22q-7 12 -10 32l9 116l4 8 q-1 40 7 96q-3 20 2 32l5 75l-3 13l2 28q-8 52 -2 88l-3 8q2 32 0 56q-2 33 4 56l-3 24l-2 21l7 103q2 32 8 56l-3 12l-5 45l2 32q-6 32 -4 60l-19 17q-12 -11 -17 -26z" />
<glyph unicode="j" horiz-adv-x="470" d="M370 1293q84 -12 12 36q-12 -16 -12 -36zM386 997v-144l4 -8v-100l-4 -16v-104l-4 -8l-4 -32q4 -32 0 -60l4 -128q-4 -16 -4 -44q4 -24 4 -40v-60l-4 -32l-4 -8v-124l4 -44v-52q4 -60 0 -98t0 -66l-16 -100q-104 -196 -200 -124q-96 52 -124 140q-20 16 -36 0 q72 -180 244 -196q100 68 144 172v12l12 52l4 20q-4 36 4 64v36l4 16q-8 24 -8 44q4 40 0 52l-4 136l4 12v140q4 36 0 64l4 24v36q0 24 -4 40l4 184l4 32q-4 36 4 64v68l-4 28v28l-4 8q-4 40 4 68q0 32 8 60q-8 20 -28 20q-12 -16 -8 -32z" />
<glyph unicode="k" horiz-adv-x="588" d="M24 1467q-4 -32 0 -56l-4 -20q0 -76 -4 -124l4 -20l-4 -20v-16q0 -96 -4 -152v-88l4 -44v-12q8 -48 0 -84v-152l4 -12v-24l-4 -8v-172q-4 -24 0 -28q-8 -60 -8 -100q0 -28 -4 -48l8 -24v-112l-4 -8v-48l-4 -24q-20 -76 28 -72l4 20q-8 24 0 72l4 20l-4 44q4 24 4 56 t-4 56v36l4 28v88q24 48 48 72q8 24 24 36l40 -68l60 -92l8 -16l16 -16l56 -76q4 -12 16 -24l56 -84l12 -28l28 -44q20 -44 40 -72q16 -12 28 -12v32l-8 8l-36 72q-32 40 -44 76l-16 20l-88 128q-20 28 -36 44q-12 24 -16 28l-4 12q-12 8 -20 24l-16 16l-8 20q-28 44 -40 72 v36q16 16 24 36l16 24l12 16q32 76 88 124l24 28l4 8q16 20 24 44l44 76q24 24 48 36l4 8q-4 32 -32 20q-28 -36 -40 -44l-40 -76q-16 -32 -44 -68q-20 -24 -40 -44q-24 -16 -36 -36l-68 -120l-12 -16l-24 -48q-32 -40 -44 -68l-4 24v80l-4 28l4 12l-4 160l4 28l-4 152 q0 32 -4 56l4 144l4 20v132l4 28v72q8 28 20 44q-12 20 -32 20z" />
<glyph unicode="l" horiz-adv-x="189" d="M16 1459v-12l-4 -28q-12 -64 -12 -136l4 -16v-40q4 -12 0 -16v-44l4 -16q-4 -60 4 -100v-56q12 -64 12 -100v-80l-4 -16l4 -32v-56l4 -28v-184q4 -24 0 -44q8 -36 4 -64v-92q0 -32 4 -52l-4 -16v-84l-4 -44l4 -12v-80q8 -20 24 -16q8 48 0 80l4 128q-8 32 0 60l-4 256 l-4 32l4 12q-4 48 0 80l-4 16v40l-4 12l-4 88l4 20q-4 44 0 72v52q-4 16 -8 44q0 28 -8 52v20l4 44l-4 16v52q-4 40 0 68l-4 32l-4 28l4 12v60l16 68q0 20 -20 28z" />
<glyph unicode="m" horiz-adv-x="950" d="M0 895v-56l4 -12q4 -104 0 -140v-24l-4 -12q4 -28 0 -52l4 -12l4 -64q-4 -36 -4 -64l4 -52v-84q0 -28 4 -72q-4 -8 0 -28v-56l8 -28l-4 -8v-16q4 -60 0 -100q12 -16 32 -20l4 20q-8 32 -8 56l-4 32l-4 28q4 44 -4 96v80l-4 28l4 12q-8 44 -4 76v148l-4 32q4 48 0 80 l24 12q20 28 36 44q52 64 100 92q64 72 132 100l44 4q48 -40 64 -92l8 -4v-16l4 -8l4 -16l-4 -8q4 -24 4 -46t4 -38v-24q-4 -48 -4 -80l4 -8q-8 -32 -4 -60l-4 -52l4 -8l-4 -12l4 -100q-4 -44 -12 -76v-84l-4 -16q-4 -48 0 -68q-8 -20 -8 -36q0 -52 20 -84q16 8 24 20v12 q-12 44 -12 72q8 36 4 64l4 44v88l4 24l4 28l-4 16q8 36 4 64v84l4 44v92q12 16 28 16q4 20 -4 32q88 172 240 248q52 -40 68 -96v-28l4 -20l4 -24q-4 -8 0 -28q-4 -20 0 -32l4 -20l-4 -16l8 -40l8 -112l4 -20q-12 -48 -8 -88q-8 -28 -4 -52v-72q-4 -80 8 -136v-8 q-20 -84 -4 -152q20 0 32 12q-12 44 -8 76l4 20l-4 48q0 32 -4 56l4 12v124l4 52q-4 32 0 56v40l4 8v72l-4 20l-4 24l-4 32l-4 20v60l-4 16v28l-4 8l4 12q-8 40 -8 72q-24 60 -64 96q-20 12 -36 12q-180 -96 -252 -264q-4 148 -80 240q-36 8 -64 8q-32 -12 -56 -16l-20 -20 l-28 -16l-44 -44l-12 -8l-32 -32l-12 -4l-24 -20l-12 -20q-16 -12 -24 -24q-16 -20 -32 -32l-4 8l-4 100l-4 44v40q12 28 12 52q-16 12 -28 12q-8 -52 -4 -88z" />
<glyph unicode="n" horiz-adv-x="670" d="M54 812q-16 60 -8 108q-8 48 0 80q-28 4 -44 -12q8 -28 20 -48q-8 -56 4 -104l4 -24v-68l-4 -32l-4 -28l4 -24q0 -24 4 -40l4 -108q-4 -44 0 -78t0 -62l4 -20v-76l4 -16l4 -20l-4 -16q0 -24 8 -60l-4 -12l4 -28q-12 -48 -8 -88q4 -24 24 -40l12 4l4 28q-12 12 -8 28 q-8 16 0 48v32q-8 60 -4 100l-4 52q-12 32 -4 64q0 20 -4 32l4 8l-4 12q4 64 -4 100l4 44q-8 44 -4 72l-4 16v128l8 8q28 40 48 60l108 104l84 48q72 -8 124 -52l4 -8q36 -48 52 -88l4 -24l36 -116v-12q8 -48 8 -80q8 -32 8 -56v-12l8 -28v-84q0 -44 -4 -76v-80l-4 -44 l-4 -28l-12 -88q-12 -68 24 -92q16 24 20 44q-12 28 -12 52q8 32 4 56l4 20l8 68l-4 24v36l4 8l-4 12q24 120 -4 216q4 24 -4 44q-12 204 -104 352q-72 64 -156 64q-152 -76 -240 -200z" />
<glyph unicode="o" horiz-adv-x="690" d="M284 979q-64 -8 -108 -36q-20 -20 -28 -32l-92 -136q-4 -24 -12 -40q-12 -40 -12 -72l-4 -8l-4 -20l-4 -32q-12 -48 -8 -84l-8 -28v-36l-4 -12v-68l4 -44l-4 -12l4 -44l4 -12l4 -32l8 -44q12 -168 160 -196q188 -52 320 124q104 188 84 372q0 40 8 68q-12 196 -120 336 l-12 4q-44 28 -76 40q-40 40 -81 39zM332 935l8 -4l20 -16l16 -8l24 -20q44 -16 68 -36q24 -32 32 -56l32 -72v-12l12 -16q8 -36 20 -64l-4 -12l4 -28q-4 -8 0 -16q-8 -60 -8 -100q24 -328 -240 -464q-28 0 -48 -4q-92 0 -156 44l-24 28l-16 28q-8 24 -24 40l-4 44l-4 8 q0 44 -8 72v52q-8 28 -4 52l-4 80l4 20l4 32l4 16v32l4 16q8 32 8 56q4 12 8 16l-4 12l8 20v12l24 88l12 12l44 72l16 16q20 28 36 44q40 28 80 31l20 -3q24 -4 40 -12z" />
<glyph unicode="p" horiz-adv-x="650" d="M28 877q12 112 -24 92l-4 -12q8 -48 0 -84q0 -48 8 -80l-4 -20l12 -272l4 -36q-8 -80 8 -140l-4 -12l-4 -32l4 -12l-4 -16v-32q-8 -48 0 -80l-12 -32l8 -20q-4 -48 -2 -78t-2 -50l4 -16v-24l-4 -8l4 -8v-136l8 -44v-24q4 -96 -12 -156q16 -24 36 -20q4 40 -4 72 q0 12 4 16l4 100l-4 16q4 28 -4 52v88l-4 12v52q-8 48 0 84q-4 44 4 72q48 -36 100 -44q76 -40 152 -40l44 -12q28 12 48 16q20 24 40 36q36 36 56 64q20 52 28 92v16l8 56l8 20v32l4 12q8 52 20 88q24 268 -76 480l-16 20l-28 28q-20 16 -32 32q-68 24 -120 20 q-160 -16 -252 -128zM300 973q40 4 72 -8l8 -8l20 -16l24 -20l28 -28q124 -296 44 -568v-12q0 -24 -4 -40l-8 -36q-4 -56 -20 -96l-12 -16q-44 -60 -88 -92l-24 -8l-28 8q-44 0 -72 8h-12q-52 28 -96 32l-92 60v48q-4 32 4 60l4 100q0 12 -4 16l-4 180l-4 16q4 36 -4 64 l-8 220q116 128 268 140z" />
<glyph unicode="q" horiz-adv-x="790" d="M260 997q-28 -24 -44 -44l-8 -4l-32 -24l-60 -60l-28 -36q-12 -32 -28 -56v-12l-8 -32v-12l-20 -64q-4 -36 -12 -64q0 -28 -8 -48v-12l-8 -80q4 -12 4 -36l-8 -44v-16l8 -28q-4 -60 0 -100q48 -332 352 -176h20l72 64l44 12v-44q4 -32 -4 -56l4 -108l-4 -12v-64l4 -12 q-4 -56 4 -92l-4 -8q-16 -96 4 -172q24 -20 52 -32l28 12q44 12 72 36l12 4q36 4 64 16l16 4l88 28l4 24l-24 8q-8 -4 -28 -8q-24 -4 -44 -16q-16 0 -36 -12q-52 -8 -92 -32q-60 -44 -88 12v24q-4 12 -4 36l8 48q-4 8 0 28l-4 16l4 24q-8 36 -4 68q-8 32 -4 60v84q0 40 8 68 v76l-4 12q4 32 0 60l-12 32v32l-4 44v80l4 20l-4 8q4 24 0 44l4 16v16l12 100l-4 24l-8 72l4 16v68q8 60 -4 108q4 24 16 44q-12 40 -4 76q-36 4 -36 -44q-88 68 -188 60zM448 945q24 -8 40 -20l4 -44v-28q4 -56 0 -92v-28l-4 -52l4 -28l4 -88q0 -12 -4 -16l-12 -88v-140 q0 -20 4 -32q0 -72 16 -120l-24 -4q-24 -24 -48 -32q-88 -68 -168 -88q-108 -32 -184 44l-24 68l-4 32l-12 44l-4 36l4 56l-4 20v164l8 16l12 88q12 40 16 72l4 16l4 20l8 16q8 36 20 64q20 20 28 36l52 52l8 12l16 12l88 76q20 0 32 4q72 0 120 -48z" />
<glyph unicode="r" horiz-adv-x="544" d="M-2 980l4 -44v-60l4 -16l4 -92q-4 -12 0 -16v-128l4 -28q0 -40 -4 -68v-64q-4 -44 0 -72v-20q-4 -32 -4 -76q0 -40 8 -68q-4 -32 0 -80l-4 -12l-4 -44q8 -52 4 -88l8 -8q20 0 28 16l-8 28v88l4 28l-4 88l-4 28v132l4 16l-4 16v88l4 16v64l-4 12v84q156 400 372 224 q12 -36 12 -64q16 -12 28 4q0 48 -12 80q-244 188 -396 -168l-8 8l4 12l-4 12v28l-4 20l-4 124l8 24q-8 12 -20 16q-8 -12 -12 -40z" />
<glyph unicode="s" horiz-adv-x="580" d="M0 775q8 -48 28 -80l8 -8l80 -52q184 -48 296 -160q92 -196 -8 -364q-72 -156 -304 -40l-12 16l-16 24q-8 24 -12 28q-12 48 -24 76l-20 12l-12 -12v-16l28 -48q12 -52 28 -84q140 -96 300 -68q148 152 120 344q-8 96 -52 168l-24 24q-20 12 -30 22t-38 22l-32 20 q-40 12 -68 28l-56 16q-36 20 -64 28q-52 32 -80 68q-36 224 204 240q92 0 144 -60l20 -4l12 8q-56 88 -192 88q-228 -32 -224 -236z" />
<glyph unicode="t" horiz-adv-x="660" d="M200 1423v-76q0 -48 -4 -80l8 -4q-4 -20 0 -40l-4 -44q4 -24 4 -60q-4 -24 0 -28q-4 -60 -4 -100q-92 -28 -168 -4l-28 -4l-4 -24l28 -16l20 4h36l8 4l24 -4q24 4 46 6t38 2q20 -96 20 -156l-4 -12l4 -32v-68l-4 -36l8 -128l-4 -20v-20l4 -28l-4 -20v-24q-4 -40 0 -68 v-52l4 -12l-4 -8v-60q-4 -28 0 -48l4 -44v-12l8 -20q0 -32 20 -76l16 -12h40q20 0 32 -4l12 4q40 -4 72 4l32 20l12 16l28 28l16 24l12 16l16 24l8 8q28 48 44 60q0 28 -28 24q-20 -32 -44 -52q-28 -88 -112 -140h-120q-36 56 -36 112l-4 12v92l4 20v32q0 24 -4 40v132l4 12 q-4 24 0 44l-4 12q4 48 -4 80q4 68 0 96l4 28q0 24 -4 40v60l-4 16v28l-12 72q36 12 64 12h16l40 -12q32 -4 84 0q20 0 32 4l12 -4h80l16 20l-16 12l-20 -4q-12 4 -24 0q-28 4 -48 0q-32 4 -60 -4l-20 4q-96 16 -156 8v28l-4 8q4 8 0 28q4 20 0 32q8 24 0 76l4 32v24l-4 12 l4 8l-4 36v44q0 60 8 100q-8 12 -16 16q-12 -8 -16 -16z" />
<glyph unicode="u" horiz-adv-x="620" d="M416 1047l8 -20l4 -28v-48q-4 -32 -4 -56v-44l4 -12l8 -40v-32l4 -16v-152l20 -96l4 -20v-56l4 -12q4 -40 12 -68v-140q-100 -116 -224 -156q-108 36 -176 152l-8 20q-16 28 -20 52l-20 244q0 36 -4 56l-4 208q8 36 4 68v48l4 12v32q12 64 12 108l-24 -8q-4 -28 -8 -32 l4 -20l-4 -16v-32q-8 -44 -4 -72l-4 -32v-32q-8 -48 0 -80q-4 -44 0 -72v-44q-8 -60 4 -100q-32 -316 184 -476q36 -12 64 -16q128 40 212 128q4 -20 0 -32l4 -28l24 -92h24l8 16q-28 72 -28 132l8 204l-4 24l-8 44l-4 36l-4 20v28l-4 16l-4 48q-20 60 -20 104q4 12 4 40 l-4 52v12q-4 24 0 44q-12 36 -12 96q0 24 4 40v28l4 8v72q-8 12 -16 12z" />
<glyph unicode="v" horiz-adv-x="667" d="M-4 987q4 -24 8 -28l12 -52l40 -140v-12q12 -32 16 -52l20 -76q28 -60 52 -140q4 -40 12 -64q4 -8 4 -18t4 -22t8 -16v-20l16 -52q0 -12 4 -16l4 -20l4 -16l12 -44l8 -12v-12l12 -32l4 -16q8 -44 16 -68q12 -52 48 -68q16 12 20 24l4 24q16 40 16 72l4 24q24 84 28 112 q0 12 4 16q4 60 16 100q12 24 12 44l12 32l12 60q12 28 12 52l8 16l28 76v12l20 64l4 8q8 44 20 72q4 24 8 34t8 14l4 12l4 28l12 28l16 60q28 36 -8 48l-12 -20l-12 -48l-24 -68q0 -8 -2 -16t-10 -24q-8 -56 -24 -92q-8 -36 -20 -64l-44 -148q-12 -28 -12 -52l-4 -16 l-8 -16q-4 -44 -20 -76l-4 -20l-4 -36l-12 -44l-4 -28l-4 -20l-12 -40q-4 -12 -8 -36q-4 -56 -18 -94t-30 18l-4 28l-12 40l-4 20l-12 32q-4 24 -16 40v12l-16 48q0 12 -4 16v12q-12 32 -16 56l-28 120l-4 16l-4 16l-32 84q-16 40 -20 68l-16 44v12l-12 36l-4 20l-8 40 q-4 16 -12 32l-4 20l-20 72q-4 24 0 40q-4 24 -24 20q-8 -24 -8 -40z" />
<glyph unicode="w" horiz-adv-x="1083" d="M926 991l-8 -16q-8 -44 -24 -76q-12 -40 -16 -68l-8 -20q-8 -44 -16 -68l-12 -52l-24 -84l-4 -8l-72 -216q-4 -16 -16 -40q-12 -20 -12 -32l-20 -52v-12q-12 -24 -12 -40l-8 -32l-48 -120q-8 12 -8 20l-20 52v12l-8 20q0 28 -8 52l-4 8l-4 16q-16 36 -20 64l-12 28 l-32 84l-8 56l-4 8l-4 44q-44 140 -46 188t6 80q-8 12 -16 16l-20 -20l-20 -64l-4 -28l-4 -20q-4 -64 -24 -108q-4 -28 -4 -48l-28 -80l-4 -16q-4 -36 -16 -64v-16q-8 -24 -12 -60q-8 -40 -20 -68v-12l-8 -16l-12 -60l-8 -24q-24 -88 -56 56v24l-8 20q0 12 -4 32l-12 40 q-16 32 -18 58t-14 62l-16 64l-4 24l-16 72l-4 8l-4 16q-4 16 -8 40q-4 36 -12 60v16l-28 112l-4 8q-12 40 -16 72l-4 8q-12 60 -8 100l-20 16q-12 -44 4 -84l-4 -8l12 -56l4 -24q8 -20 8 -40l8 -12l20 -76l4 -28l4 -24q12 -40 20 -100l4 -28l16 -48q0 -12 4 -36 q16 -36 20 -68v-16q12 -32 12 -56l16 -40v-16l12 -40q0 -8 4 -28q4 -24 16 -52q0 -24 8 -40l4 -36q12 -32 28 -52l24 4l12 32l24 64q0 12 4 16q8 36 20 64q0 16 4 40l48 200q16 40 22 66t6 46l16 44q0 8 8 28v32q8 24 8 44l4 -16q8 -44 20 -72v-12l20 -44v-12l16 -84l4 -12 l4 -28q12 -28 16 -52l4 -8q12 -20 16 -36q0 -8 2 -16t6 -16t8 -24q4 -28 12 -44q12 -36 16 -64l12 -44q20 -56 24 -92q12 -8 24 -8q12 12 16 24l20 36l12 28v12l8 16l52 180l12 28q4 24 16 40l20 64l4 16l56 152q8 44 16 68l32 104l4 20l12 48v12l20 48l12 28q8 44 32 72 l-8 20h-16z" />
<glyph unicode="x" horiz-adv-x="790" d="M84 967l20 -32l32 -36q12 -12 28 -36q56 -48 80 -92q4 -12 8 -16l8 -12l12 -28q16 -16 20 -32q28 -28 42 -54t26 -42l-48 -84l-8 -8l-52 -88q-28 -36 -40 -64q-100 -112 -132 -232q-20 -28 -28 -44q-40 -20 -52 -48q40 -28 64 16l8 12l32 64l8 12l12 36l28 64l12 12 l16 28l56 72l20 32l28 44q4 12 8 16l80 124l12 -12q0 -12 8 -20l16 -32l8 -8l16 -20l40 -64l12 -24l16 -24q28 -72 64 -120l16 -28l44 -104q20 -56 40 -88l28 -12q8 20 8 36q-16 12 -32 36l-8 20q-12 36 -40 80q-24 84 -72 140l-12 24q-44 108 -108 176l-40 80q8 28 20 48 q0 8 12 28q8 24 20 36l8 24l8 12l44 116l4 8q28 60 64 96l20 28l-8 24h-16l-8 -16l-16 -20l-12 -20l-44 -64q0 -8 -12 -28l-12 -32q-12 -44 -24 -68l-24 -52l-12 -28q-8 -32 -28 -56l-32 48l-12 16q-52 68 -72 116l-8 12l-28 24l-20 32q-68 60 -92 136l-12 4 q-20 -20 -12 -44z" />
<glyph unicode="y" horiz-adv-x="730" d="M600 1009q8 -32 -4 -84l-4 -20l-16 -48l4 -8q-20 -48 -16 -92l-4 -24q-16 -48 -16 -84l-4 -8l-16 -60l-4 -8q-12 -52 -12 -88q-16 -32 -20 -56l-40 -120v-12l-12 -40q-4 -48 -12 -80q-8 -72 -36 -120q-12 4 -16 12q-12 56 -32 88l-12 24q-16 72 -52 120v12l-8 12l-8 24 v12l-100 268l-4 16l-28 44l4 8l-4 8l-12 32l-12 28q0 16 -4 28t-8 36q-24 96 -28 156q-12 16 -28 16q-4 -8 0 -16l8 -56l4 -12l16 -72v-12l8 -24l12 -64l8 -24l4 -8l24 -64q16 -20 24 -40l4 -12q4 -36 20 -64l16 -64l8 -8q8 -24 20 -40l20 -64l4 -16l4 -20q8 -20 20 -32 q4 -44 28 -72q20 -72 48 -116q8 -60 40 -100l-8 -12v-12l-8 -16q0 -12 -12 -40q-8 -32 -20 -56l-4 -16l-12 -28l-4 -16l-12 -28v-12l-32 -88l-8 -8q-20 -44 -44 -72q-20 -8 -32 -16h-28l-32 8l-16 4l-68 8q-12 32 -32 40q-12 -40 8 -68q12 0 16 -4l12 -4h40q60 -8 100 -20 l60 28l8 8l32 52l4 12q8 20 16 32l24 72l4 24l8 4q8 40 36 96l4 24l16 44q8 44 20 76q8 52 32 84q0 12 4 16l4 24q4 84 24 140l12 60q12 24 16 44l4 12q4 20 12 32q4 28 12 48v24l20 68v12l8 12q0 20 4 40l8 16v28l4 8q4 36 12 64q4 52 16 88v20l4 8l12 48l4 28q12 24 12 48 l8 24q-8 16 -24 16z" />
<glyph unicode="z" horiz-adv-x="810" d="M622 1032l-44 2l-16 -8l-24 5l-32 -3l-8 -3q-45 -3 -73 -10q-32 1 -52 -2q-55 18 -108 8q-16 4 -43 9q-28 1 -52 10q-25 -15 -22 -39l24 -5l24 3l40 -5l160 -6l16 4l28 3l57 6l24 3l68 1q32 -5 60 6l16 -8q-21 -19 -34 -39l-21 -51l-127 -192l-33 -31q-5 -12 -17 -23 l-13 -16q-16 -19 -25 -39l-80 -113l-12 -16l-30 -43l-4 -12l-144 -207q-44 -126 -123 -200v-16l15 -8q12 -1 41 6l100 9q61 26 113 20l163 -14q44 3 76 -2l100 -4q41 11 76 1l13 12q-11 24 -35 33l-12 1q-45 -15 -81 -13l-16 -4l-8 4q-28 1 -71 7l-33 -7l-12 4l-28 -3l-7 5 h-16l-28 5l-92 11l-56 -10q-77 -21 -133 -15l8 8q14 39 31 67l42 70q9 28 22 47l38 55l8 8l68 114l21 23l9 20l25 31l8 19l9 8l16 24q9 23 22 35l16 19q38 55 65.5 88t51.5 52l9 24q17 15 25 35l9 8q13 31 25 47l9 8l21 47q17 23 26 47q33 39 74 54q13 19 -7 36 q-48 -6 -84 3z" />
<glyph unicode="{" horiz-adv-x="360" d="M76 1503l-4 -36q0 -48 -4 -80q-4 -44 -4 -72v-52q4 -40 -4 -68q8 -40 0 -72v-16l4 -28l4 -28l4 -8q8 -48 8 -82t-4 -62q-12 -32 -12 -56q-16 -56 -60 -84l-4 -16l4 -16q52 -36 56 -92v-12q0 -36 -4 -64q0 -60 -12 -104v-40l-4 -16q0 -28 -12 -72v-108q-4 -32 -4 -56v-120 l4 -12q12 -44 28 -72q68 -80 160 -68l-8 24q-112 24 -144 120v12q-8 64 0 112l-4 12l4 12v56l4 8l-4 20q4 32 0 56l4 16l4 32l8 44v24l4 16q0 24 4 40q0 28 4 48v12q4 20 0 32q8 32 4 60q-8 56 -36 92q8 24 20 36l20 64v16l8 28v16l4 28l4 72l-4 8l-8 64l-4 8l-4 44 q4 32 0 52v108l4 24q-4 32 0 68q8 56 4 92q32 128 152 160q-12 32 -48 24q-100 -48 -132 -148z" />
<glyph unicode="|" horiz-adv-x="168" d="M0 1606l12 -40l4 -16l4 -28l4 -44v-40l-4 -12v-128q4 -20 0 -32v-68l-4 -28v-56l4 -20l-4 -16v-188q0 -44 -4 -72l4 -60l-4 -16q0 -24 4 -40v-96l-4 -32l-4 -28l4 -12l-4 -16l4 -16l4 -44v-12q-4 -48 0 -112q8 -72 4 -120v-72q0 -16 4 -44q0 -28 4 -48v-44 q-8 -76 -4 -168q-4 -12 0 -16l4 -152q0 -20 20 -20q12 16 8 52l4 24q-8 32 -4 56l-8 436q4 64 -4 100v12q4 44 -4 72q0 20 4 32v24l-4 8v48l-4 24v28q4 12 0 16l4 28q-4 44 4 72l-4 28v152q4 60 0 100q0 28 4 56l-4 28q4 24 4 40l-4 24v28l4 12v184q4 24 0 44l4 32v104 l-4 12l-4 52l20 24q0 24 -16 32q-32 -8 -44 -28z" />
<glyph unicode="}" horiz-adv-x="378" d="M176 47l4 36q0 48 4 80q4 44 4 72v52q-4 40 4 68q-8 40 0 72v16l-4 28l-4 28l-4 8q-8 48 -8 82t4 62q12 32 12 56q16 56 60 84l4 16l-4 16q-52 36 -56 92v12q0 36 4 64q0 60 12 104v40l4 16q0 28 12 72v108q4 32 4 56v120l-4 12q-12 44 -28 72q-68 80 -160 68l8 -24 q112 -24 144 -120v-12q8 -64 0 -112l4 -12l-4 -12v-56l-4 -8l4 -20q-4 -32 0 -56l-4 -16l-4 -32l-8 -44v-24l-4 -16q0 -24 -4 -40q0 -28 -4 -48v-12q-4 -20 0 -32q-8 -32 -4 -60q8 -56 36 -92q-8 -24 -20 -36l-20 -64v-16l-8 -28v-16l-4 -28l-4 -72l4 -8l8 -64l4 -8l4 -44 q-4 -32 0 -52v-108l-4 -24q4 -32 0 -68q-8 -56 -4 -92q-32 -128 -152 -160q12 -32 48 -24q100 48 132 148z" />
<glyph unicode="~" horiz-adv-x="980" d="M40 888l-40 -32q0 -12 8 -24q28 12 48 32q92 112 220 132l16 -8l32 -12l72 -44q76 -88 164 -132q16 0 44 8l32 12q44 24 68 44l12 8l12 8q32 16 52 36l80 52q16 24 20 40v8l-28 4l-20 -36l-68 -44l-8 -8l-20 -16l-16 -12q-52 -28 -84 -56l-8 -4l-48 -16l-60 28 q-32 32 -60 48q-80 100 -192 120q-148 -28 -228 -136z" />
<glyph unicode="&#xa1;" horiz-adv-x="309" />
<glyph unicode="&#xa2;" horiz-adv-x="636" />
<glyph unicode="&#xa3;" horiz-adv-x="636" />
<glyph unicode="&#xa4;" horiz-adv-x="420" />
<glyph unicode="&#xa5;" horiz-adv-x="636" />
<glyph unicode="&#xa6;" horiz-adv-x="201" />
<glyph unicode="&#xa7;" horiz-adv-x="420" />
<glyph unicode="&#xa8;" horiz-adv-x="371" />
<glyph unicode="&#xa9;" horiz-adv-x="714" />
<glyph unicode="&#xaa;" horiz-adv-x="402" />
<glyph unicode="&#xab;" horiz-adv-x="540" />
<glyph unicode="&#xac;" horiz-adv-x="1395" />
<glyph unicode="&#xad;" horiz-adv-x="636" />
<glyph unicode="&#x2212;" horiz-adv-x="636" />
<glyph unicode="&#xae;" horiz-adv-x="747" />
<glyph unicode="&#xaf;" horiz-adv-x="360" />
<glyph unicode="&#x2c9;" horiz-adv-x="360" />
<glyph unicode="&#xb0;" horiz-adv-x="285" />
<glyph unicode="&#xb1;" horiz-adv-x="636" />
<glyph unicode="&#xb2;" horiz-adv-x="300" />
<glyph unicode="&#xb3;" horiz-adv-x="300" />
<glyph unicode="&#xb4;" horiz-adv-x="462" />
<glyph unicode="&#xb5;" horiz-adv-x="420" />
<glyph unicode="&#x3bc;" horiz-adv-x="420" />
<glyph unicode="&#xb6;" horiz-adv-x="450" />
<glyph unicode="&#xb7;" horiz-adv-x="207" />
<glyph unicode="&#x2219;" horiz-adv-x="207" />
<glyph unicode="&#xb8;" horiz-adv-x="321" />
<glyph unicode="&#xb9;" horiz-adv-x="300" />
<glyph unicode="&#xba;" horiz-adv-x="402" />
<glyph unicode="&#xbb;" horiz-adv-x="540" />
<glyph unicode="&#xbc;" horiz-adv-x="786" />
<glyph unicode="&#xbd;" horiz-adv-x="786" />
<glyph unicode="&#xbe;" horiz-adv-x="786" />
<glyph unicode="&#xbf;" horiz-adv-x="567" />
<glyph unicode="&#xc0;" horiz-adv-x="609" />
<glyph unicode="&#xc1;" horiz-adv-x="609" />
<glyph unicode="&#xc2;" horiz-adv-x="609" />
<glyph unicode="&#xc3;" horiz-adv-x="609" />
<glyph unicode="&#xc4;" horiz-adv-x="609" />
<glyph unicode="&#xc5;" horiz-adv-x="609" />
<glyph unicode="&#xc6;" horiz-adv-x="819" />
<glyph unicode="&#xc7;" horiz-adv-x="729" />
<glyph unicode="&#xc8;" horiz-adv-x="648" />
<glyph unicode="&#xc9;" horiz-adv-x="648" />
<glyph unicode="&#xca;" horiz-adv-x="648" />
<glyph unicode="&#xcb;" horiz-adv-x="648" />
<glyph unicode="&#xcc;" />
<glyph unicode="&#xcd;" />
<glyph unicode="&#xce;" />
<glyph unicode="&#xcf;" />
<glyph unicode="&#xd0;" horiz-adv-x="663" />
<glyph unicode="&#xd1;" horiz-adv-x="612" />
<glyph unicode="&#xd2;" horiz-adv-x="696" />
<glyph unicode="&#xd3;" horiz-adv-x="696" />
<glyph unicode="&#xd4;" horiz-adv-x="696" />
<glyph unicode="&#xd5;" horiz-adv-x="696" />
<glyph unicode="&#xd6;" horiz-adv-x="696" />
<glyph unicode="&#xd7;" horiz-adv-x="636" />
<glyph unicode="&#xd8;" horiz-adv-x="696" />
<glyph unicode="&#xd9;" horiz-adv-x="660" />
<glyph unicode="&#xda;" horiz-adv-x="660" />
<glyph unicode="&#xdb;" horiz-adv-x="660" />
<glyph unicode="&#xdc;" horiz-adv-x="660" />
<glyph unicode="&#xdd;" horiz-adv-x="526" />
<glyph unicode="&#xde;" horiz-adv-x="576" />
<glyph unicode="&#xdf;" horiz-adv-x="498" />
<glyph unicode="&#xe0;" horiz-adv-x="369" />
<glyph unicode="&#xe1;" horiz-adv-x="369" />
<glyph unicode="&#xe2;" horiz-adv-x="369" />
<glyph unicode="&#xe3;" horiz-adv-x="369" />
<glyph unicode="&#xe4;" horiz-adv-x="369" />
<glyph unicode="&#xe5;" horiz-adv-x="369" />
<glyph unicode="&#xe6;" horiz-adv-x="747" />
<glyph unicode="&#xe7;" horiz-adv-x="510" />
<glyph unicode="&#xe8;" horiz-adv-x="486" />
<glyph unicode="&#xe9;" horiz-adv-x="486" />
<glyph unicode="&#xea;" horiz-adv-x="486" />
<glyph unicode="&#xeb;" horiz-adv-x="486" />
<glyph unicode="&#xec;" />
<glyph unicode="&#xed;" />
<glyph unicode="&#xee;" />
<glyph unicode="&#xef;" />
<glyph unicode="&#xf0;" horiz-adv-x="483" />
<glyph unicode="&#xf1;" horiz-adv-x="384" />
<glyph unicode="&#xf2;" horiz-adv-x="366" />
<glyph unicode="&#xf3;" horiz-adv-x="366" />
<glyph unicode="&#xf4;" horiz-adv-x="366" />
<glyph unicode="&#xf5;" horiz-adv-x="366" />
<glyph unicode="&#xf6;" horiz-adv-x="366" />
<glyph unicode="&#xf7;" horiz-adv-x="636" />
<glyph unicode="&#xf8;" horiz-adv-x="366" />
<glyph unicode="&#xf9;" horiz-adv-x="342" />
<glyph unicode="&#xfa;" horiz-adv-x="342" />
<glyph unicode="&#xfb;" horiz-adv-x="342" />
<glyph unicode="&#xfc;" horiz-adv-x="342" />
<glyph unicode="&#xfd;" horiz-adv-x="393" />
<glyph unicode="&#xfe;" horiz-adv-x="348" />
<glyph unicode="&#xff;" horiz-adv-x="393" />
<glyph unicode="&#x152;" horiz-adv-x="954" />
<glyph unicode="&#x153;" horiz-adv-x="756" />
<glyph unicode="&#x178;" horiz-adv-x="526" />
<glyph unicode="&#x2c6;" horiz-adv-x="360" />
<glyph unicode="&#x2dc;" horiz-adv-x="483" />
<glyph unicode="&#x2000;" horiz-adv-x="830" />
<glyph unicode="&#x2001;" horiz-adv-x="1660" />
<glyph unicode="&#x2002;" horiz-adv-x="830" />
<glyph unicode="&#x2003;" horiz-adv-x="1660" />
<glyph unicode="&#x2004;" horiz-adv-x="553" />
<glyph unicode="&#x2005;" horiz-adv-x="415" />
<glyph unicode="&#x2006;" horiz-adv-x="276" />
<glyph unicode="&#x2007;" horiz-adv-x="276" />
<glyph unicode="&#x2008;" horiz-adv-x="207" />
<glyph unicode="&#x2009;" horiz-adv-x="332" />
<glyph unicode="&#x200a;" horiz-adv-x="92" />
<glyph unicode="&#x2010;" horiz-adv-x="648" d="M12 503l8 4q20 -4 24 0l12 -4h184l20 -4l24 -4l20 4l24 -4l16 4q24 -4 44 4h108l8 4q44 -8 70 2t14 30q-12 0 -40 4l-32 -4h-32l-16 -4q-60 4 -100 -4l-32 -4l-20 4l-36 -4q-52 12 -88 8h-56l-8 -4l-12 4q-60 0 -100 8q-24 -20 -4 -40z" />
<glyph unicode="&#x2011;" horiz-adv-x="648" d="M12 503l8 4q20 -4 24 0l12 -4h184l20 -4l24 -4l20 4l24 -4l16 4q24 -4 44 4h108l8 4q44 -8 70 2t14 30q-12 0 -40 4l-32 -4h-32l-16 -4q-60 4 -100 -4l-32 -4l-20 4l-36 -4q-52 12 -88 8h-56l-8 -4l-12 4q-60 0 -100 8q-24 -20 -4 -40z" />
<glyph unicode="&#x2012;" horiz-adv-x="648" d="M12 503l8 4q20 -4 24 0l12 -4h184l20 -4l24 -4l20 4l24 -4l16 4q24 -4 44 4h108l8 4q44 -8 70 2t14 30q-12 0 -40 4l-32 -4h-32l-16 -4q-60 4 -100 -4l-32 -4l-20 4l-36 -4q-52 12 -88 8h-56l-8 -4l-12 4q-60 0 -100 8q-24 -20 -4 -40z" />
<glyph unicode="&#x2013;" horiz-adv-x="684" />
<glyph unicode="&#x2014;" horiz-adv-x="894" />
<glyph unicode="&#x2018;" horiz-adv-x="237" />
<glyph unicode="&#x2019;" horiz-adv-x="240" />
<glyph unicode="&#x201a;" />
<glyph unicode="&#x201c;" horiz-adv-x="342" />
<glyph unicode="&#x201d;" horiz-adv-x="300" />
<glyph unicode="&#x201e;" horiz-adv-x="402" />
<glyph unicode="&#x2022;" horiz-adv-x="387" />
<glyph unicode="&#x2026;" horiz-adv-x="792" />
<glyph unicode="&#x202f;" horiz-adv-x="332" />
<glyph unicode="&#x2039;" horiz-adv-x="321" />
<glyph unicode="&#x203a;" horiz-adv-x="321" />
<glyph unicode="&#x205f;" horiz-adv-x="415" />
<glyph unicode="&#x2122;" horiz-adv-x="681" />
<glyph unicode="&#xe000;" horiz-adv-x="1010" d="M0 1010h1010v-1010h-1010v1010z" />
<glyph unicode="&#xfb01;" horiz-adv-x="945" d="M710 1326q16 -65 52 -3q-15 17 -27 18zM738 972q9 -37 11 -65l3 -17q-2 -24 1 -40l-10 -151q-3 -32 0 -57l-2 -16l8 -12l-5 -16v-44l-2 -40l3 -8l-3 -44l2 -28l2 -28l1 -45l-6 -23v-68q-10 -24 -7 -40v-48l-7 -48l-3 -48q-12 -47 -2 -88q28 -2 37 22q-7 12 -10 32l9 116 l4 8q-1 40 7 96q-3 20 2 32l5 75l-3 13l2 28q-8 52 -2 88l-3 8q2 32 0 56q-2 33 4 56l-3 24l-2 21l7 103q2 32 8 56l-3 12l-5 45l2 32q-6 32 -4 60l-19 17q-12 -11 -17 -26zM432 1439l-8 4q-40 -20 -92 -40l-4 -8q-32 -32 -48 -56q-20 -40 -20 -72l-24 -76v-16l-12 -68 q-4 -84 -4 -112l-8 -4q-44 -4 -72 -12l-28 8l-20 -4l-52 8q-24 0 -40 -4l8 -28l128 -4q48 0 80 8q8 -28 4 -52v-76l4 -24q-4 -44 0 -76q0 -20 4 -32l-4 -28l4 -20v-20l8 -68q0 -20 4 -32l-4 -44v-28l4 -8l4 -328l4 -8q-8 -32 -4 -60v-12q-4 -28 -4 -48q28 -8 40 12 q0 20 -8 32v32l4 8l-4 364q-8 52 -4 88v20l-8 44l-4 16l-4 212q-8 76 8 136l12 4l8 -4q44 4 72 -4l8 4q20 -4 36 0l16 -4l32 8h72l24 -4q56 4 92 -4l8 32q-12 8 -24 8l-24 -4l-12 4l-8 -4h-180l-16 -4l-12 4h-108l-8 8v16l16 132q8 204 152 252q148 32 208 -104l24 4 q-40 144 -204 144z" />
<glyph unicode="&#xfb02;" horiz-adv-x="899" d="M726 1459v-12l-4 -28q-12 -64 -12 -136l4 -16v-40q4 -12 0 -16v-44l4 -16q-4 -60 4 -100v-56q12 -64 12 -100v-80l-4 -16l4 -32v-56l4 -28v-184q4 -24 0 -44q8 -36 4 -64v-92q0 -32 4 -52l-4 -16v-84l-4 -44l4 -12v-80q8 -20 24 -16q8 48 0 80l4 128q-8 32 0 60l-4 256 l-4 32l4 12q-4 48 0 80l-4 16v40l-4 12l-4 88l4 20q-4 44 0 72v52q-4 16 -8 44q0 28 -8 52v20l4 44l-4 16v52q-4 40 0 68l-4 32l-4 28l4 12v60l16 68q0 20 -20 28zM432 1439l-8 4q-40 -20 -92 -40l-4 -8q-32 -32 -48 -56q-20 -40 -20 -72l-24 -76v-16l-12 -68 q-4 -84 -4 -112l-8 -4q-44 -4 -72 -12l-28 8l-20 -4l-52 8q-24 0 -40 -4l8 -28l128 -4q48 0 80 8q8 -28 4 -52v-76l4 -24q-4 -44 0 -76q0 -20 4 -32l-4 -28l4 -20v-20l8 -68q0 -20 4 -32l-4 -44v-28l4 -8l4 -328l4 -8q-8 -32 -4 -60v-12q-4 -28 -4 -48q28 -8 40 12 q0 20 -8 32v32l4 8l-4 364q-8 52 -4 88v20l-8 44l-4 16l-4 212q-8 76 8 136l12 4l8 -4q44 4 72 -4l8 4q20 -4 36 0l16 -4l32 8h72l24 -4q56 4 92 -4l8 32q-12 8 -24 8l-24 -4l-12 4l-8 -4h-180l-16 -4l-12 4h-108l-8 8v16l16 132q8 204 152 252q148 32 208 -104l24 4 q-40 144 -204 144z" />
<glyph unicode="&#xfb03;" horiz-adv-x="1655" d="M1420 1326q16 -65 52 -3q-15 17 -27 18zM1448 972q9 -37 11 -65l3 -17q-2 -24 1 -40l-10 -151q-3 -32 0 -57l-2 -16l8 -12l-5 -16v-44l-2 -40l3 -8l-3 -44l2 -28l2 -28l1 -45l-6 -23v-68q-10 -24 -7 -40v-48l-7 -48l-3 -48q-12 -47 -2 -88q28 -2 37 22q-7 12 -10 32 l9 116l4 8q-1 40 7 96q-3 20 2 32l5 75l-3 13l2 28q-8 52 -2 88l-3 8q2 32 0 56q-2 33 4 56l-3 24l-2 21l7 103q2 32 8 56l-3 12l-5 45l2 32q-6 32 -4 60l-19 17q-12 -11 -17 -26zM1142 1439l-8 4q-40 -20 -92 -40l-4 -8q-32 -32 -48 -56q-20 -40 -20 -72l-24 -76v-16 l-12 -68q-4 -84 -4 -112l-8 -4q-44 -4 -72 -12l-28 8l-20 -4l-52 8q-24 0 -40 -4l8 -28l128 -4q48 0 80 8q8 -28 4 -52v-76l4 -24q-4 -44 0 -76q0 -20 4 -32l-4 -28l4 -20v-20l8 -68q0 -20 4 -32l-4 -44v-28l4 -8l4 -328l4 -8q-8 -32 -4 -60v-12q-4 -28 -4 -48q28 -8 40 12 q0 20 -8 32v32l4 8l-4 364q-8 52 -4 88v20l-8 44l-4 16l-4 212q-8 76 8 136l12 4l8 -4q44 4 72 -4l8 4q20 -4 36 0l16 -4l32 8h72l24 -4q56 4 92 -4l8 32q-12 8 -24 8l-24 -4l-12 4l-8 -4h-180l-16 -4l-12 4h-108l-8 8v16l16 132q8 204 152 252q148 32 208 -104l24 4 q-40 144 -204 144zM432 1439l-8 4q-40 -20 -92 -40l-4 -8q-32 -32 -48 -56q-20 -40 -20 -72l-24 -76v-16l-12 -68q-4 -84 -4 -112l-8 -4q-44 -4 -72 -12l-28 8l-20 -4l-52 8q-24 0 -40 -4l8 -28l128 -4q48 0 80 8q8 -28 4 -52v-76l4 -24q-4 -44 0 -76q0 -20 4 -32l-4 -28 l4 -20v-20l8 -68q0 -20 4 -32l-4 -44v-28l4 -8l4 -328l4 -8q-8 -32 -4 -60v-12q-4 -28 -4 -48q28 -8 40 12q0 20 -8 32v32l4 8l-4 364q-8 52 -4 88v20l-8 44l-4 16l-4 212q-8 76 8 136l12 4l8 -4q44 4 72 -4l8 4q20 -4 36 0l16 -4l32 8h72l24 -4q56 4 92 -4l8 32 q-12 8 -24 8l-24 -4l-12 4l-8 -4h-180l-16 -4l-12 4h-108l-8 8v16l16 132q8 204 152 252q148 32 208 -104l24 4q-40 144 -204 144z" />
<glyph unicode="&#xfb04;" horiz-adv-x="1609" d="M1436 1459v-12l-4 -28q-12 -64 -12 -136l4 -16v-40q4 -12 0 -16v-44l4 -16q-4 -60 4 -100v-56q12 -64 12 -100v-80l-4 -16l4 -32v-56l4 -28v-184q4 -24 0 -44q8 -36 4 -64v-92q0 -32 4 -52l-4 -16v-84l-4 -44l4 -12v-80q8 -20 24 -16q8 48 0 80l4 128q-8 32 0 60l-4 256 l-4 32l4 12q-4 48 0 80l-4 16v40l-4 12l-4 88l4 20q-4 44 0 72v52q-4 16 -8 44q0 28 -8 52v20l4 44l-4 16v52q-4 40 0 68l-4 32l-4 28l4 12v60l16 68q0 20 -20 28zM1142 1439l-8 4q-40 -20 -92 -40l-4 -8q-32 -32 -48 -56q-20 -40 -20 -72l-24 -76v-16l-12 -68 q-4 -84 -4 -112l-8 -4q-44 -4 -72 -12l-28 8l-20 -4l-52 8q-24 0 -40 -4l8 -28l128 -4q48 0 80 8q8 -28 4 -52v-76l4 -24q-4 -44 0 -76q0 -20 4 -32l-4 -28l4 -20v-20l8 -68q0 -20 4 -32l-4 -44v-28l4 -8l4 -328l4 -8q-8 -32 -4 -60v-12q-4 -28 -4 -48q28 -8 40 12 q0 20 -8 32v32l4 8l-4 364q-8 52 -4 88v20l-8 44l-4 16l-4 212q-8 76 8 136l12 4l8 -4q44 4 72 -4l8 4q20 -4 36 0l16 -4l32 8h72l24 -4q56 4 92 -4l8 32q-12 8 -24 8l-24 -4l-12 4l-8 -4h-180l-16 -4l-12 4h-108l-8 8v16l16 132q8 204 152 252q148 32 208 -104l24 4 q-40 144 -204 144zM432 1439l-8 4q-40 -20 -92 -40l-4 -8q-32 -32 -48 -56q-20 -40 -20 -72l-24 -76v-16l-12 -68q-4 -84 -4 -112l-8 -4q-44 -4 -72 -12l-28 8l-20 -4l-52 8q-24 0 -40 -4l8 -28l128 -4q48 0 80 8q8 -28 4 -52v-76l4 -24q-4 -44 0 -76q0 -20 4 -32l-4 -28 l4 -20v-20l8 -68q0 -20 4 -32l-4 -44v-28l4 -8l4 -328l4 -8q-8 -32 -4 -60v-12q-4 -28 -4 -48q28 -8 40 12q0 20 -8 32v32l4 8l-4 364q-8 52 -4 88v20l-8 44l-4 16l-4 212q-8 76 8 136l12 4l8 -4q44 4 72 -4l8 4q20 -4 36 0l16 -4l32 8h72l24 -4q56 4 92 -4l8 32 q-12 8 -24 8l-24 -4l-12 4l-8 -4h-180l-16 -4l-12 4h-108l-8 8v16l16 132q8 204 152 252q148 32 208 -104l24 4q-40 144 -204 144z" />
</font>
</defs>
</svg>
